<svg xmlns="http://www.w3.org/2000/svg"  viewBox="0 0 135 135" width="260px" height="260px"><g id="_x35_5"><path fill="#4fe88d" d="M131.5029907,67.5c0,35.3457031-28.6483994,64.0118713-64.011879,64.0118713 c-35.3456993,0-63.9940987-28.6661682-63.9940987-64.0118713S32.1454124,3.4881263,67.4911118,3.4881263 C102.8545914,3.4881263,131.5029907,32.1542969,131.5029907,67.5z"/><circle cx="67.5" cy="67.5" r="48.442" fill="#35d175"/><path fill="#c68142" d="M107.7603073,25.4096317v67.0109558H27.2396927V25.4096317 c0-2.4754963,2.0131607-4.4733677,4.4733677-4.4733677h71.5738831 C105.7471466,20.936264,107.7603073,22.9341354,107.7603073,25.4096317z"/><rect width="80.521" height="26.124" x="27.24" y="66.296" fill="#af6223"/><path fill="#af6223" d="M34.462101,83.7165833V29.6448193c0-0.8235245,0.6675987-1.4911232,1.4911232-1.4911232h63.0935516 c0.8235245,0,1.491127,0.6675987,1.491127,1.4911232v54.0717621c0,0.8235245-0.6676025,1.4911194-1.491127,1.4911194 H35.9532242C35.1296997,85.2077026,34.462101,84.5401077,34.462101,83.7165833z"/><path fill="#a54b08" d="M38.1850281,37.8453598V60.331604c0,3.2940979,2.6703911,5.9644928,5.964489,5.9644928h56.3939934 v26.1244888H34.457222V29.644186c0-0.820116,0.6710052-1.4911213,1.4911232-1.4911213h63.1040382 c0.8201218,0,1.491127,0.6710052,1.491127,1.4911213v2.2366848H44.1495171 C40.8690491,31.8808708,38.1850281,34.5648918,38.1850281,37.8453598z"/><path fill="#fff" d="M42.9250717,25.8419075l17.657135,0.0000629 c0.8112106,0.0000038,1.4676361-0.6571751,1.4676399-1.4677219s-0.656414-1.4677315-1.4676285-1.4677353L42.925087,22.9064503 c-0.8112144-0.0000038-1.4676399,0.6571732-1.4676437,1.46772 C41.4574394,25.1847191,42.1138611,25.8419018,42.9250717,25.8419075z" opacity=".3"/><path fill="#fff" d="M65.4006348,25.8419952l0.9589539,0.0000038c0.8112183,0.0000038,1.4676437-0.6571732,1.4676437-1.46772 c0.0000076-0.8105488-0.6564178-1.4677315-1.4676285-1.4677372L65.40065,22.906538 c-0.8112106-0.0000038-1.4676399,0.6571732-1.4676437,1.46772 C63.9330025,25.1848068,64.5894241,25.8419895,65.4006348,25.8419952z" opacity=".3"/><path fill="#fff" d="M105.601593,60.7504692l0.0002365-12.6574211 c0.0000153-0.8112297-0.6571579-1.4676704-1.4677124-1.4676743c-0.8105545,0-1.4677505,0.6564369-1.4677658,1.4676666 l-0.0002365,12.6574211c-0.0000153,0.8112335,0.6571655,1.4676743,1.4677124,1.4676743 C104.9443817,62.2181396,105.6015854,61.5617027,105.601593,60.7504692z" opacity=".3"/><path fill="#2c8cff" d="M74.1845779,34.5484657v8.3324394l-33.1858368-2.407135 c-1.2335701,0-2.3559914-0.4954491-3.1648941-1.314476c-0.8999367-0.8898163-1.4055099-2.1537476-1.3043594-3.5288925 c0.1921234-2.3661118,2.2953224-4.1153736,4.6714935-4.1153736h29.9501572 C72.8195572,31.515028,74.1845779,32.8800507,74.1845779,34.5484657z"/><path fill="#43a1ff" d="M76.206871,43.5072098v33.5094147c0,1.6784744-1.3549652,3.0334396-3.0334396,3.0334396H40.9987411 c-1.2335701,0-2.3559914-0.4954529-3.1648941-1.314476c-0.8190269-0.8089676-1.3144798-1.9313278-1.3144798-3.1648941 V35.9944c0,1.2335701,0.4954529,2.3559875,1.3144798,3.1648941c0.8089027,0.8190269,1.931324,1.314476,3.1648941,1.314476 h32.1746902C74.8519058,40.4737701,76.206871,41.8287354,76.206871,43.5072098z"/><path fill="#fff" d="M52.2157249,55.8134956v0.0071945c0,0.5527267-0.4422531,0.9949837-0.9949837,0.9949837h-1.6672859 c-0.5527267,0-0.9949799-0.4422569-0.9949799-0.9949837v-0.0071945c0-0.5455322,0.4422531-0.9949837,0.9949799-0.9949837 h1.6672859C51.7734718,54.818512,52.2157249,55.2679634,52.2157249,55.8134956z"/><path fill="#fff" d="M67.9905701,55.8134956v0.0071945c0,0.5527267-0.4422607,0.9949837-0.9949875,0.9949837H54.4708977 c-0.5527267,0-0.9949837-0.4422569-0.9949837-0.9949837v-0.0071945c0-0.5455322,0.4422569-0.9949837,0.9949837-0.9949837 h12.5246849C67.5483093,54.818512,67.9905701,55.2679634,67.9905701,55.8134956z"/><path fill="#fff" d="M48.5584755,60.2215538v0.0071945c0,0.5527306,0.4422531,0.9949837,0.9949799,0.9949837H59.36549 c0.5527306,0,0.9949837-0.4422531,0.9949837-0.9949837v-0.0071945c0-0.5455322-0.4422531-0.9949837-0.9949837-0.9949837 h-9.8120346C49.0007286,59.2265701,48.5584755,59.6760216,48.5584755,60.2215538z"/><path fill="#e5f5f9" d="M50.9020157,56.8211441h-1.3453598c-0.5548935,0-0.9995308-0.4440346-0.9995308-0.9995308v-0.0120506 c0-0.5428429,0.4446373-0.9874802,0.9995308-0.9874802h1.3453598c-0.5554962,0-0.9995308,0.4446373-0.9995308,0.9874802 v0.0120506C49.9024849,56.3771095,50.3465195,56.8211441,50.9020157,56.8211441z"/><path fill="#e5f5f9" d="M57.4788017,56.8211441H54.467556c-0.5548935,0-0.9868813-0.4440346-0.9868813-0.9995308v-0.0120506 c0-0.5428429,0.4319878-0.9874802,0.9868813-0.9874802h3.0112457c-0.5554962,0-0.9995308,0.4446373-0.9995308,0.9874802 v0.0120506C56.4792709,56.3771095,56.9233055,56.8211441,57.4788017,56.8211441z"/><path fill="#e5f5f9" d="M51.5804214,61.2259521h-2.0237656c-0.5548935,0-0.9995308-0.4440346-0.9995308-0.9989281 c0-0.5554962,0.4446373-0.9995346,0.9995308-0.9995346h2.0237656c-0.5554962,0-0.9995308,0.4440384-0.9995308,0.9995346 C50.5808907,60.7819176,51.0249252,61.2259521,51.5804214,61.2259521z"/><path fill="#2c8cff" d="M36.5193672,66.2697601v17.9291992c0,1.1157227,0.4482422,2.1313477,1.1894531,2.8632813 c0.7319336,0.7407227,1.7470703,1.1889648,2.8632813,1.1889648h29.1088905 c1.5185547,0,2.7446289-1.2255859,2.7446289-2.7441406V66.2697601H36.5193672z"/><g><path fill="#24272b" d="M43.4288483,40.4737701h-2.4301071c-1.2335701,0-2.3559914-0.4954491-3.1648941-1.314476 c-0.8190269-0.8089066-1.3144798-1.931324-1.3144798-3.1648941V75.570694 c0,1.2335663,0.4954529,2.3559265,1.3144798,3.1648941c0.8089027,0.8190231,1.931324,1.314476,3.1648941,1.314476h2.4301071 V40.4737701z"/></g><g><path fill="#13181e" d="M36.519371,66.1027679v9.4677734c0,1.2338867,0.4956055,2.355957,1.3144531,3.1650391 c0.809082,0.8188477,1.9311523,1.3144531,3.1650391,1.3144531h2.4301758V66.1027679H36.519371z"/></g><g><path fill="#13181e" d="M43.425518,31.515028v8.9587421h-2.4267769c-1.2335701,0-2.3559914-0.4954491-3.1648941-1.314476 c-0.8190269-0.8089066-1.3144798-1.931324-1.3144798-3.1648941c0-2.4773216,2.0020523-4.479372,4.4793739-4.479372 H43.425518z"/></g><g><path fill="#fff" d="M42.6828575,40.4737701h29.3372383v-5.1182938c0-1.072094-0.8691025-1.9411964-1.9412003-1.9411964 H42.6828575c-1.9494247,0-3.5297432,1.5803185-3.5297432,3.5297432v0.0000076 C39.1531143,38.8934517,40.7334328,40.4737701,42.6828575,40.4737701z"/></g><g><path fill="#e5f5f9" d="M71.9558105,34.8627243c-0.1565018-0.0570335-0.3276062-0.0855522-0.5126266-0.0855522H44.0502052 c-1.9517212,0-3.5327148,1.5809937-3.5327148,3.5327148c0,0.6266937,0.1711044,1.2109604,0.4555855,1.7235832 c-0.2990875-0.1711082-0.5550499-0.3703842-0.7831917-0.598175 c-0.6413002-0.6413002-1.0398521-1.5243073-1.0398521-2.4928665c0-1.9517212,1.5809937-3.5327148,3.5327148-3.5327148 h27.3929825C70.9729919,33.4097137,71.7422714,34.0221481,71.9558105,34.8627243z"/></g><g opacity=".4"><path fill="#fff" d="M47.249321,42.3372421l8.1486588,0.0000038c0.6659813,0,1.2057343,0.5397568,1.2057343,1.2057381 s-0.5397568,1.2057343-1.2057343,1.2057343l-8.1486588-0.0000038c-0.6659813,0-1.2057381-0.539753-1.2057343-1.2057343 C46.0435867,42.8769989,46.5833397,42.3372421,47.249321,42.3372421z"/><path fill="#fff" d="M59.4795799,42.3372459h0.9758911c0.6659813,0.0000038,1.2057343,0.5397568,1.2057343,1.2057381 s-0.539753,1.2057381-1.2057343,1.2057381h-0.9758911c-0.6659813-0.0000038-1.2057343-0.5397568-1.2057343-1.2057381 S58.8135986,42.3372459,59.4795799,42.3372459z"/></g><g><path fill="#f49f16" d="M96.4626846,47.0852013v7.5385246l-30.0238876-2.177784 c-1.1160355,0-2.1315155-0.448246-2.8633461-1.1892357c-0.8141899-0.8050308-1.2715912-1.9485397-1.1800766-3.1926575 c0.1738129-2.140667,2.0766258-3.7232628,4.2263908-3.7232628h27.0965042 C95.2277222,44.340786,96.4626846,45.5757484,96.4626846,47.0852013z"/><path fill="#ffb32c" d="M98.2922897,55.1903534v30.3166351c0,1.5185471-1.2258606,2.7444153-2.7444077,2.7444153H66.438797 c-1.1160355,0-2.1315155-0.4482498-2.8633461-1.1892395c-0.7409897-0.7318878-1.1892357-1.7473068-1.1892357-2.8633423 V48.393364c0,1.1160355,0.448246,2.1315117,1.1892357,2.8633423 c0.7318306,0.7409897,1.7473106,1.1892357,2.8633461,1.1892357h29.1090851 C97.0664291,52.4459419,98.2922897,53.6718025,98.2922897,55.1903534z"/><path fill="#f49f16" d="M62.3860703,66.2697601v17.9291992c0,1.1157227,0.4482422,2.1313477,1.1894531,2.8632813 c0.7319336,0.7407227,1.7470703,1.1889648,2.8632813,1.1889648h29.1088867 c1.5185547,0,2.7446289-1.2255859,2.7446289-2.7441406V66.2697601H62.3860703z"/><path fill="#24272b" d="M68.6373596,52.4459419H66.438797c-1.1160355,0-2.1315155-0.448246-2.8633461-1.1892357 c-0.7409897-0.7318306-1.1892357-1.7473068-1.1892357-2.8633423V84.198822 c0,1.1160355,0.448246,2.1314545,1.1892357,2.8633423c0.7318306,0.7409897,1.7473106,1.1892395,2.8633461,1.1892395 h2.1985626V52.4459419z"/><path d="M62.3860703,66.186264v18.0126953c0,1.1157227,0.4482422,2.1313477,1.1894531,2.8632813 c0.7319336,0.7407227,1.7470703,1.1889648,2.8632813,1.1889648h2.1987305V66.186264H62.3860703z"/><path fill="#13181e" d="M68.634346,44.340786v8.1051559h-2.195549c-1.1160355,0-2.1315155-0.448246-2.8633461-1.1892357 c-0.7409897-0.7318306-1.1892357-1.7473068-1.1892357-2.8633423c0-2.2412834,1.8112946-4.052578,4.0525818-4.052578 H68.634346z"/><path fill="#fff" d="M67.9624481,52.4459419h26.5419846v-4.6306229c0-0.969944-0.7863007-1.7562408-1.7562408-1.7562408 H67.9624481c-1.7636795,0-3.193428,1.4297485-3.193428,3.193428v0.0000076 C64.7690201,51.0161934,66.1987686,52.4459419,67.9624481,52.4459419z"/><path fill="#e5f5f9" d="M94.4462738,47.3695145c-0.1415939-0.0515976-0.2963943-0.0774002-0.4637833-0.0774002H69.1995163 c-1.7657623,0-3.1961212,1.4303551-3.1961212,3.1961174c0,0.5669823,0.154808,1.0955811,0.412178,1.5593605 c-0.2705841-0.1548042-0.5021667-0.3350945-0.7085648-0.5411835 c-0.5802002-0.5801964-0.9407806-1.3790703-0.9407806-2.2553406c0-1.7657661,1.4303589-3.1961212,3.1961212-3.1961212 h24.7829742C93.5570984,46.0549469,94.2530823,46.6090317,94.4462738,47.3695145z"/><g opacity=".4"><path fill="#fff" d="M80.5141068,54.2141571h7.3722534c0.6025238,0,1.0908508,0.4883308,1.0908508,1.0908546 c0,0.6025276-0.488327,1.0908546-1.0908508,1.0908546l-7.372261-0.0000038 c-0.6025238,0-1.0908508-0.488327-1.0908508-1.0908546C79.4232483,54.7024841,79.9115753,54.2141571,80.5141068,54.2141571z"/><path fill="#fff" d="M91.5790634,54.2141609h0.8829117c0.6025238,0,1.0908508,0.488327,1.0908508,1.0908546 c0,0.6025238-0.488327,1.0908508-1.0908585,1.0908508h-0.8829041c-0.6025238,0-1.0908508-0.488327-1.0908508-1.0908546 C90.4882126,54.7024879,90.9765396,54.2141609,91.5790634,54.2141609z"/></g></g><g><path fill="#c68142" d="M112.7258606,75.2428284v30.061264c0,2.4705734-2.0027924,4.4733658-4.4733658,4.4733658H26.7475052 c-2.4705715,0-4.4733658-2.0027924-4.4733658-4.4733658v-30.061264c0-2.4705734,2.0027943-4.4733658,4.4733658-4.4733658 h81.5049896C110.7230682,70.7694626,112.7258606,72.7722549,112.7258606,75.2428284z"/></g><g><path fill="#af6223" d="M89.8668365,90.2880249c0,3.1016464-2.5199127,5.6215591-5.6215591,5.6215591 c-3.1016541,0-5.6215591-2.5199127-5.6215591-5.6215591c0-3.1009293,2.5199051-5.6208344,5.6215591-5.6208344 C87.3469238,84.6671906,89.8668365,87.1870956,89.8668365,90.2880249z"/><path fill="#a54b08" d="M88.8679047,87.1273956c-0.8948212-0.5817413-1.9534607-0.9246674-3.0863647-0.9246674 c-3.1016541,0-5.6215591,2.5199051-5.6215591,5.6215591c0,1.1329041,0.342926,2.1915436,0.9239426,3.0863571 c-1.491127-0.9989319-2.4602051-2.6990128-2.4602051-4.6226196c0-3.1009293,2.5199051-5.6208344,5.6215591-5.6208344 C86.1688843,84.6671906,87.8689651,85.6362762,88.8679047,87.1273956z"/><path fill="#af6223" d="M57.3009567,90.2880249c0,3.1016464-2.5199127,5.6215591-5.621563,5.6215591 s-5.6215591-2.5199127-5.6215591-5.6215591c0-3.1009293,2.5199089-5.6208344,5.6215591-5.6208344 S57.3009567,87.1870956,57.3009567,90.2880249z"/><path fill="#a54b08" d="M56.302021,87.1273956c-0.8948212-0.5817413-1.9534607-0.9246674-3.0870895-0.9246674 c-3.1009254,0-5.621563,2.5199051-5.621563,5.6215591c0,1.1329041,0.3429298,2.1915436,0.9246712,3.0863571 c-1.4911232-0.9989319-2.4602051-2.6990128-2.4602051-4.6226196c0-3.1009293,2.5199089-5.6208344,5.6215591-5.6208344 C53.6030006,84.6671906,55.3023567,85.6362762,56.302021,87.1273956z"/></g><g><path fill="#af6223" d="M112.7258606,104.6924973v0.6115952c0,2.4754944-1.9978714,4.4733658-4.4733658,4.4733658H26.7475052 c-2.4747677,0-4.4733658-1.9978714-4.4733658-4.4733658v-30.061264c0-2.4754944,1.9985981-4.4733658,4.4733658-4.4733658 h0.6115932v29.4496689c0,2.4602051,2.0131626,4.4733658,4.4733677,4.4733658H112.7258606z"/></g><g><path fill="#fff" d="M86.4819565,90.2588959v0.029129c0,1.745224-1.4168549,3.1613541-3.1613541,3.1613541H52.6040649 c-1.7444954,0-3.1613541-1.4161301-3.1613541-3.1613541v-0.029129c0-1.745224,1.4168587-3.1613541,3.1613541-3.1613541 h30.7165375C85.0651016,87.0975418,86.4819565,88.5136719,86.4819565,90.2588959z"/></g><g><path fill="#e5f5f9" d="M86.3625565,91.1384277c-0.3727798,1.3265762-1.5952454,2.3109512-3.041954,2.3109512H52.6040649 c-1.7444954,0-3.1613541-1.4161301-3.1613541-3.1613541v-0.029129c0-1.4467087,0.984375-2.6691666,2.3109474-3.0419464 c-0.0742645,0.2679367-0.1194038,0.5511627-0.1194038,0.849678v0.0298538c0,1.7444916,1.4168549,3.1613541,3.1613541,3.1613541 h30.7172699C85.8106613,91.2578354,86.0946198,91.2126923,86.3625565,91.1384277z"/></g><g><path fill="#e5f5f9" d="M46.2578735,38.4694366c0,0.3017082-0.2468109,0.5485229-0.5578957,0.5485229h-1.8281097 c-0.301712,0-0.5574493-0.2468147-0.5574493-0.5485229c0-0.3106384,0.2557373-0.5574493,0.5574493-0.5574493h1.8281097 C46.0110626,37.9119873,46.2578735,38.1587982,46.2578735,38.4694366z"/><path fill="#e5f5f9" d="M70.1090927,35.9988632c0,0.3017082-0.2468185,0.5485229-0.5578995,0.5485229h-1.8281097 c-0.301712,0-0.5574493-0.2468147-0.5574493-0.5485229c0-0.3106384,0.2557373-0.5574493,0.5574493-0.5574493h1.8281097 C69.8622742,35.4414139,70.1090927,35.6882248,70.1090927,35.9988632z"/><path fill="#e5f5f9" d="M54.167366,36.9356461c0,0.3106384-0.2463646,0.5574493-0.5574493,0.5574493h-4.6796265 c-0.3110809,0-0.5578957-0.2468109-0.5578957-0.5574493c0-0.3017082,0.2468147-0.5576706,0.5578957-0.5576706h4.6796265 C53.9210014,36.3779755,54.167366,36.6339378,54.167366,36.9356461z"/><path fill="#e5f5f9" d="M66.677269,38.2869873c0,0.3107452-0.2463684,0.55756-0.5574493,0.55756h-9.2320518 c-0.301712,0-0.5574493-0.2468147-0.5574493-0.55756c0-0.3015976,0.2557373-0.55756,0.5574493-0.55756h9.2320518 C66.4309006,37.7294273,66.677269,37.9853897,66.677269,38.2869873z"/></g><g><path fill="#e5f5f9" d="M70.516571,50.8811378c0,0.3017082-0.2468109,0.5485191-0.5578918,0.5485191h-1.8281097 c-0.301712,0-0.5574493-0.2468109-0.5574493-0.5485191c0-0.3106384,0.2557373-0.5574493,0.5574493-0.5574493h1.8281097 C70.2697601,50.3236885,70.516571,50.5704994,70.516571,50.8811378z"/><path fill="#e5f5f9" d="M93.0644608,48.4105644c0,0.3017082-0.2468185,0.5485191-0.5578995,0.5485191h-1.8281097 c-0.301712,0-0.5574493-0.2468109-0.5574493-0.5485191c0-0.3106384,0.2557373-0.5574493,0.5574493-0.5574493h1.8281097 C92.8176422,47.8531151,93.0644608,48.099926,93.0644608,48.4105644z"/><path fill="#e5f5f9" d="M77.6110992,49.3473473c0,0.3106384-0.2463684,0.5574493-0.5574493,0.5574493h-4.6796265 c-0.3110809,0-0.5578918-0.2468109-0.5578918-0.5574493c0-0.3017082,0.2468109-0.5576706,0.5578918-0.5576706h4.6796265 C77.3647308,48.7896767,77.6110992,49.045639,77.6110992,49.3473473z"/><path fill="#e5f5f9" d="M90.1210022,50.6986885c0,0.3107452-0.2463684,0.55756-0.5574493,0.55756h-9.2320557 c-0.3017044,0-0.5574493-0.2468147-0.5574493-0.55756c0-0.3016014,0.2557449-0.5575638,0.5574493-0.5575638h9.2320557 C89.8746338,50.1411247,90.1210022,50.3970871,90.1210022,50.6986885z"/></g><g><path fill="#fff" d="M31.3426304,76.5919037l17.6571331,0.0000687c0.8112106,0,1.4676399-0.6571732,1.4676437-1.46772 c0-0.8105469-0.6564178-1.4677353-1.4676323-1.4677353l-17.6571312-0.0000687 c-0.8112144,0-1.4676399,0.6571732-1.4676437,1.46772S30.5314178,76.5919037,31.3426304,76.5919037z" opacity=".3"/><path fill="#fff" d="M53.8181953,76.5919952l0.9589539,0.0000076c0.8112144,0,1.4676399-0.6571808,1.4676437-1.4677277 s-0.6564178-1.4677277-1.4676323-1.4677353h-0.9589539c-0.8112144-0.0000076-1.4676399,0.6571732-1.4676437,1.46772 S53.0069809,76.5919876,53.8181953,76.5919952z" opacity=".3"/></g><g><path fill="#fff" d="M110.601593,95.750473l0.0002365-12.6574249 c0.0000153-0.8112335-0.6571579-1.4676743-1.4677124-1.4676743s-1.4677505,0.6564331-1.4677658,1.4676666 l-0.0002365,12.6574249c-0.0000153,0.8112259,0.6571655,1.4676666,1.4677124,1.4676743 C109.9443817,97.2181396,110.6015854,96.5616989,110.601593,95.750473z" opacity=".3"/></g><g><path fill="#fff" d="M78.1421127,62.4862404v0.0071983c0,0.5527267-0.4422607,0.9949799-0.9949875,0.9949799h-1.6672821 c-0.5527267,0-0.9949875-0.4422531-0.9949875-0.9949799v-0.0071983c0-0.5455322,0.4422607-0.9949837,0.9949875-0.9949837 h1.6672821C77.699852,61.4912567,78.1421127,61.9407082,78.1421127,62.4862404z"/><path fill="#fff" d="M93.916954,62.4862404v0.0071983c0,0.5527267-0.4422531,0.9949799-0.9949875,0.9949799H80.3972855 c-0.5527267,0-0.9949875-0.4422531-0.9949875-0.9949799v-0.0071983c0-0.5455322,0.4422607-0.9949837,0.9949875-0.9949837 h12.5246811C93.4747009,61.4912567,93.916954,61.9407082,93.916954,62.4862404z"/><path fill="#fff" d="M74.4848557,66.8943024v0.0071945c0,0.5527267,0.4422607,0.9949799,0.9949875,0.9949799h9.8120346 c0.5527267,0,0.9949799-0.4422531,0.9949799-0.9949799v-0.0071945c0-0.5455322-0.4422531-0.9949875-0.9949799-0.9949875 h-9.8120346C74.9271164,65.8993149,74.4848557,66.3487701,74.4848557,66.8943024z"/><path fill="#e5f5f9" d="M76.8283997,63.4938927h-1.3453598c-0.5548935,0-0.9995346-0.4440384-0.9995346-0.9995346v-0.0120468 c0-0.5428467,0.4446411-0.987484,0.9995346-0.987484h1.3453598c-0.5554962,0-0.999527,0.4446373-0.999527,0.987484v0.0120468 C75.8288727,63.0498543,76.2729034,63.4938927,76.8283997,63.4938927z"/><path fill="#e5f5f9" d="M83.4051895,63.4938927h-3.0112534c-0.5548935,0-0.9868774-0.4440384-0.9868774-0.9995346v-0.0120468 c0-0.5428467,0.4319839-0.987484,0.9868774-0.987484h3.0112534c-0.5554962,0-0.9995346,0.4446373-0.9995346,0.987484v0.0120468 C82.4056549,63.0498543,82.8496933,63.4938927,83.4051895,63.4938927z"/><g><path fill="#e5f5f9" d="M77.5068054,67.8986969h-2.0237656c-0.5548935,0-0.9995346-0.4440308-0.9995346-0.9989243 c0-0.5554962,0.4446411-0.9995346,0.9995346-0.9995346h2.0237656c-0.5554962,0-0.9995346,0.4440384-0.9995346,0.9995346 C76.5072708,67.4546661,76.9513092,67.8986969,77.5068054,67.8986969z"/></g></g></g></svg>