<svg xmlns="http://www.w3.org/2000/svg"  viewBox="0 0 135 135" width="260px" height="260px" fill-rule="evenodd" clip-rule="evenodd"><g id="_x36_1"><circle cx="67.5" cy="67.5" r="64" fill="#ffc536"/><ellipse cx="69.317" cy="97.315" fill="#2b3642" opacity=".1" rx="29.943" ry="5.152"/><path fill="#393e46" d="M29.5812054,87.4555588V33.994812c0-0.8073044,0.6544094-1.4617119,1.4617138-1.4617119h72.9141541 c0.807312,0,1.4617157,0.6544075,1.4617157,1.4617119v53.4606018c0,0.8073044-0.6544037,1.4617157-1.4617157,1.4617157 H31.0429192C30.2356148,88.9172745,29.5812054,88.2627182,29.5812054,87.4555588L29.5812054,87.4555588z"/><path fill="#fff" d="M34.0655975,84.4435501h66.8688049V37.0068207H34.0655975V84.4435501z"/><path fill="#bbc7d7" d="M40.093689,67.5647964h55.4998169c0.5118103,0,0.9265137-0.4148254,0.9265137-0.9265137 c0-0.5116806-0.4147034-0.926506-0.9265137-0.926506H40.093689c-0.5118027,0-0.9265099,0.4148254-0.9265099,0.926506 C39.1671791,67.149971,39.5818863,67.5647964,40.093689,67.5647964z"/><path fill="#bbc7d7" d="M40.093689,62.584259h55.4998169c0.5118103,0,0.9265137-0.4148331,0.9265137-0.9265137 s-0.4147034-0.9265137-0.9265137-0.9265137H40.093689c-0.5118027,0-0.9265099,0.4148331-0.9265099,0.9265137 S39.5818863,62.584259,40.093689,62.584259z"/><path fill="#bbc7d7" d="M40.093689,57.6037178h55.4998169c0.5118103,0,0.9265137-0.4148331,0.9265137-0.9265137 s-0.4147034-0.9265137-0.9265137-0.9265137H40.093689c-0.5118027,0-0.9265099,0.4148331-0.9265099,0.9265137 S39.5818863,57.6037178,40.093689,57.6037178z"/><path fill="#bbc7d7" d="M40.093689,52.6231766h55.4998169c0.5118103,0,0.9265137-0.4148331,0.9265137-0.9265137 s-0.4147034-0.9265137-0.9265137-0.9265137H40.093689c-0.5118027,0-0.9265099,0.4148331-0.9265099,0.9265137 S39.5818863,52.6231766,40.093689,52.6231766z"/><path fill="#bbc7d7" d="M62.3761864,70.1489182H40.093689c-0.5118027,0-0.9265099,0.4148331-0.9265099,0.9265137 s0.4147072,0.9265137,0.9265099,0.9265137h22.2824974c0.5118065,0,0.9265137-0.4148331,0.9265137-0.9265137 S62.887867,70.1489182,62.3761864,70.1489182z"/><g><path fill="#fe4c40" d="M90.6487427,42.8139839H45.0382385c-0.8903313,0-1.6117516,0.7216377-1.6117516,1.6117516 s0.7214203,1.6117516,1.6117516,1.6117516h45.6107254c0.8903275,0,1.6117477-0.7216377,1.6117477-1.6117516 S91.5390778,42.8139839,90.6487427,42.8139839z"/></g><g><path fill="#ffc536" fill-rule="evenodd" d="M94.5248108,76.3659134L94.5248108,76.3659134c0.3285828-0.3286514,0.3285828-0.8501358,0-1.1787186l0,0 c-0.2380142-0.2382431-0.3174515-0.6007462-0.1700745-0.9181824l0,0 c0.1700745-0.4307938-0.0339127-0.9180679-0.4646301-1.0994644l0,0 c-0.3175125-0.1247253-0.5214844-0.4306641-0.5214844-0.770752l0,0c0-0.4646912-0.3852005-0.8388138-0.8387451-0.8388138l0,0 c-0.328598,0-0.6460953-0.2040329-0.7819138-0.5212402l0,0c-0.1701202-0.4307938-0.657402-0.6347122-1.0882492-0.4646988l0,0 c-0.3173828,0.1245499-0.6686707,0.0679398-0.9180603-0.1700134l0,0c-0.3285904-0.3401413-0.8501358-0.3401413-1.1899872,0l0,0 c-0.2382431,0.2379532-0.6007309,0.3171997-0.9183044,0.1700134l0,0 c-0.4306564-0.1700134-0.9179459,0.033905-1.0880203,0.4646988l0,0 c-0.1247177,0.3172073-0.4307175,0.5212402-0.782135,0.5212402l0,0c-0.4533157,0-0.8387527,0.3741226-0.8387527,0.8388138l0,0 c0,0.3287582-0.2039719,0.6460266-0.5213013,0.770752l0,0c-0.4306717,0.1813965-0.6346436,0.6686707-0.4533081,1.0994644l0,0 c0.1245499,0.3174362,0.0566101,0.6572876-0.1813354,0.9181824l0,0c-0.3288193,0.3285828-0.3288193,0.8500671,0,1.1787186l0,0 c0.2379456,0.2379456,0.3172073,0.6007385,0.1813354,0.9179459l0,0 c-0.1813354,0.4307785,0.0226364,0.9182434,0.4533081,1.0996323l0,0 c0.3173294,0.1245499,0.5213013,0.4306717,0.5213013,0.7705841l0,0c0,0.4646912,0.385437,0.8387527,0.8387527,0.8387527l0,0 c0.3400879,0,0.6574173,0.2153549,0.782135,0.5214767l0,0c0.1700745,0.4307251,0.6573639,0.6347046,1.0880203,0.4646301l0,0 c0.3175735-0.1246567,0.6687317-0.0681076,0.9183044,0.1700745l0,0c0.3398514,0.3399124,0.8613968,0.3399124,1.1899872,0l0,0 c0.237999-0.2381821,0.6006775-0.3174362,0.9180603-0.1700745l0,0c0.4308472,0.1700745,0.918129-0.033905,1.0882492-0.4646301 l0,0c0.1358185-0.3061218,0.4306717-0.5214767,0.7819138-0.5214767l0,0c0.4535446,0,0.8387451-0.3740616,0.8387451-0.8387527 l0,0c0-0.328598,0.2039719-0.6460342,0.5214844-0.7705841l0,0c0.4307175-0.1813889,0.6347046-0.6688538,0.4646301-1.0996323l0,0 C94.21875,76.9553223,94.2867966,76.6038589,94.5248108,76.3659134L94.5248108,76.3659134z" clip-rule="evenodd"/><path fill="#ffb612" fill-rule="evenodd" d="M93.1306686,75.7764359c0-2.1987991-1.7794571-3.9897079-3.9784317-3.9897079 c-2.2101898,0-3.9895859,1.7909088-3.9895859,3.9897079c0,2.1990433,1.7793961,3.9897614,3.9895859,3.9897614 C91.3512115,79.7661972,93.1306686,77.9754791,93.1306686,75.7764359L93.1306686,75.7764359z" clip-rule="evenodd"/></g></g></svg>