<svg xmlns="http://www.w3.org/2000/svg"  viewBox="0 0 135 135" width="260px" height="260px"><g id="_x31_1"><circle cx="67.5" cy="67.5" r="64" fill="#16bf66"/><path fill="#ffb612" d="M96.477684,78.3638077H39.687706c-0.5299683,0-0.9500122-0.4301758-0.9500122-0.9501953 c0-0.5297852,0.4200439-0.9499512,0.9500122-0.9499512h57.4400024c3.2600098,0,6.2999878-2.1899414,6.8900146-5.3999023 c0.7600098-4.1599121-2.4500122-7.8100624-6.4700317-7.8100624H39.687706 c-0.5299683,0-0.9500122-0.4199219-0.9500122-0.9399414c0-0.5300293,0.4200439-0.9499512,0.9500122-0.9499512h57.8599854 C108.3249969,61.3638039,109.7960129,78.3638077,96.477684,78.3638077z"/><path fill="#ffb612" d="M104.1193542,70.2146378c0,3.1536331-3.0869217,6.25-6.9899902,6.25H40.1593285V63.254673h57.3900185 c3.6644897,0,6.5700073,3.1431618,6.5700073,6.2500038C104.1393738,69.7146378,104.1393738,69.9646378,104.1193542,70.2146378z"/><path fill="#ffb612" d="M103.4136047,66.8794327c-0.0369873-0.0705566-0.0685425-0.1462402-0.1142578-0.2148438 c-0.446312-0.8582611-1.1620255-1.6772614-2.2399902-2.3798828c-1.0299683-0.6501503-2.2199707-1.0300331-3.5100098-1.0300331 H40.1593285v3.6247597H103.4136047z"/><path fill="#f3f3f3" d="M82.6341248,69.5046768c0-3.0670776-2.8598709-6.2500038-6.5700073-6.2500038h-35.904789v13.2099648 h35.4848061c3.8306503,0,6.9899902-3.0234528,6.9899902-6.25 C82.6541443,69.9646378,82.6541443,69.7146378,82.6341248,69.5046768z"/><path fill="#e1e7ef" d="M40.1593285,66.8794327h41.7690468c-0.0369873-0.0705566-0.0685425-0.1462402-0.1142578-0.2148438 c-0.9938736-1.9112244-3.2419357-3.4099159-5.75-3.4099159h-35.904789V66.8794327z"/><path fill="#393e46" d="M37.6962204,78.8922424c0.9117126-0.341774,1.8994827-0.5319061,2.944294-0.5319061h65.2776337v1.8994827 H40.6405144c-8.6480541,0-8.9704113,13.2013245,0.4178276,13.2013245h64.8598099v1.8994827H41.7041054 c-1.1966858,0-2.3743591-0.1708908-3.4949875-0.5506897C29.8350925,92.2851257,30.3886738,81.5269394,37.6962204,78.8922424z"/><path fill="#e5e8ed" d="M104.4893494,80.2646866v13.1999512H41.0593529c-6.1175537,0-8.6170158-6.0395508-6.1876678-9.8850098 c0.9962616-1.9158173,3.0618668-3.3149414,5.7676849-3.3149414H104.4893494z"/><path fill="#d4dee8" d="M104.4893494,83.579628v-3.3149414H40.63937c-2.4838524,0-4.68367,1.4338379-5.6975708,3.3149414 H104.4893494z"/><path fill="#ea241f" d="M31.0295525,44.9199944c0.9117146-0.3417778,1.8994827-0.5319138,2.944294-0.5319138h65.2776413 v1.8994865H33.9738464c-4.0271301,0-7.2371483,3.6470947-6.4775391,7.8068542 c0.5889511,3.210247,3.6283112,5.3944702,6.8953705,5.3944702h64.8598099v1.8994865H35.0374374 c-1.1966858,0-2.3743553-0.1708908-3.4949875-0.5506935C23.1684265,58.3128738,23.7220058,47.5546875,31.0295525,44.9199944z"/><path fill="#e5e8ed" d="M97.8226776,46.2924309V59.492382H34.3926888c-4.1092396,0-7.3214226-3.4839668-6.9899902-6.9599609 c0-3.0169601,2.8061333-6.2399902,6.5700073-6.2399902H97.8226776z"/><path fill="#d4dee8" d="M97.8226776,49.6073723v-3.3149414H33.9727058c-2.271452,0-4.6102657,1.250248-5.7231236,3.3149414 H97.8226776z"/><g><path fill="#ffa914" d="M75.0976791,78.3638077H39.687706c-0.5299683,0-0.9500122-0.4301758-0.9500122-0.9501953 c0-0.5297852,0.4200439-0.9499512,0.9500122-0.9499512h36.0599976c3.2600098,0,6.2999878-2.1899414,6.8900146-5.3999023 c0.7600098-4.1599121-2.4500122-7.8100624-6.4700317-7.8100624H39.687706c-0.5299683,0-0.9500122-0.4199219-0.9500122-0.9399414 c0-0.5300293,0.4200439-0.9499512,0.9500122-0.9499512h36.4799805 C87.3308563,61.3638039,88.1605759,78.3638077,75.0976791,78.3638077z"/></g><g><path fill="#fff" d="M103.0582733,71.9127579c-2.8861084,0.1135788-5.1397095,2.5518265-5.0329666,5.4452438 c-0.0567856-1.4429245-0.6982574-2.7277756-1.6809082-3.6360855c-0.9901199-0.9151459-2.3213272-1.4535751-3.757309-1.3970642 c2.892662-0.1280975,5.1465454-2.559227,5.0258408-5.4451447l0.0071182-0.0002747 C97.7336349,69.765625,100.1647644,72.0195007,103.0582733,71.9127579z"/></g></g></svg>