<svg xmlns="http://www.w3.org/2000/svg"  viewBox="0 0 135 135" width="260px" height="260px"><g id="_x32_"><path fill="#4fe88d" d="M131.5029907,67.5c0,35.3457031-28.6483994,64.0118713-64.011879,64.0118713 c-35.3456993,0-63.9940987-28.6661682-63.9940987-64.0118713S32.1454124,3.4881263,67.4911118,3.4881263 C102.8545914,3.4881263,131.5029907,32.1542969,131.5029907,67.5z"/><path fill="#ffc27c" d="M11.529541,98.4933167c10.9086914,19.6855469,31.8637695,33.0185547,55.9672852,33.0185547 c24.1074219,0,45.0634766-13.3334961,55.9736328-33.0185547H11.529541z"/><path fill="#f7b26d" d="M33.2430458,104.8876648v16.6900024c-1.8800049-1.1900024-3.6799927-2.4700317-5.4199829-3.8500366 v-12.8399658c0-1.5,1.2099609-2.710022,2.7099609-2.710022 C32.0395622,102.1776428,33.2430458,103.3814774,33.2430458,104.8876648z"/><path fill="#f7b26d" d="M104.7630692,111.7276306v7.8099976c-1.7399902,1.2600098-3.5500488,2.4200439-5.4200439,3.4899902 v-11.2999878c0-1.5,1.210083-2.7099609,2.710083-2.7099609 C103.5594406,109.0176697,104.7630692,110.221489,104.7630692,111.7276306z"/><path fill="#f7b26d" d="M88.6729813,116.4276428v11.4799805c-1.7700195,0.6300049-3.5799561,1.1799927-5.4199219,1.6300049 v-13.1099854c0-1.5,1.2099609-2.710022,2.7099609-2.710022 C87.4696121,113.7176208,88.6729813,114.9214554,88.6729813,116.4276428z"/><path fill="#f7b26d" d="M39.0905762,98.4933167v12.6635742c0,1.4715118,1.1960449,2.7099609,2.7099609,2.7099609 c1.5,0,2.7099609-1.2099609,2.7099609-2.7099609V98.4933167H39.0905762z"/><path fill="#f7b26d" d="M113.9929199,98.4933167v12.984375c1.9501953-2.0600586,3.7700195-4.25,5.4199219-6.5600586v-6.4243164 H113.9929199z"/><path fill="#f7b26d" d="M56.9530067,106.1776428v24.460022c-1.8399658-0.3000488-3.6499023-0.6799927-5.4199219-1.1400146 l-0.0100098-23.3200073c0-1.5,1.2099609-2.710022,2.7099609-2.710022 C55.7648201,103.4676208,56.9530067,104.7370758,56.9530067,106.1776428z"/><path fill="#f7b26d" d="M89.7429199,98.4933167v7.0834961c0,1.4609909,1.1777725,2.7099609,2.7099609,2.7099609 c1.4902344,0,2.7099609-1.2202148,2.7099609-2.7099609v-7.0834961H89.7429199z"/><path fill="#f7b26d" d="M68.8630371,98.4933167v32.9941406c1.8300781-0.0297852,3.6401367-0.1499023,5.4199219-0.3398438 V98.4933167H68.8630371z"/><g><path fill="#f7b26d" d="M18.2780762,98.4933167v3.1635742c0,1.4715118,1.1960449,2.7099609,2.7099609,2.7099609 c1.5,0,2.7099609-1.2099609,2.7099609-2.7099609v-3.1635742H18.2780762z"/></g><g><rect width="22.189" height="12.57" x="56.405" y="89.663" fill="#24272b"/><path fill="#13181e" d="M78.5946579,99.5489731v2.6837234H56.4053307V89.6631851h2.6838913v5.659256 c0,2.3315048,1.8948593,4.226532,4.2265396,4.226532H78.5946579z"/><path fill="#24272b" d="M93.2983475,106.5762787v0.0000076c0,2.3988953-1.9446869,4.3435822-4.3435822,4.3435822H46.0452194 c-2.3988914,0-4.3435783-1.9446869-4.3435783-4.3435822v-0.0000076c0-2.3988953,1.9446869-4.3435822,4.3435783-4.3435822 h42.9095459C91.3536606,102.2326965,93.2983475,104.1773834,93.2983475,106.5762787z"/><path fill="#13181e" d="M93.0566559,107.9950027c-0.5847244,1.7046509-2.1978836,2.9232864-4.0999603,2.9232864H46.043293 c-2.3949699,0-4.3393593-1.9442139-4.3393593-4.33918c0-1.2047119,0.4863548-2.2893753,1.2681694-3.0713654 c0.4646873-0.464859,1.0284309-0.8241196,1.6623421-1.0354767c-0.1620026,0.4438705-0.2466164,0.9228363-0.2466164,1.4158936 c0,2.4021912,1.9443855,4.3462372,4.3462372,4.3462372h42.9065208 C92.1407013,108.2343979,92.6126099,108.1499557,93.0566559,107.9950027z"/><g opacity=".3"><path fill="#fff" d="M64.6236954,106.5398788l-11.0189667-0.0000076 c-0.5947113-0.0000076-1.0767021-0.4820099-1.0767021-1.0767288c0-0.5947266,0.4819908-1.0767288,1.0767021-1.0767288 l11.0189667,0.0000076c0.5947113,0,1.0767059,0.4820023,1.0767059,1.0767288S65.2184067,106.5398788,64.6236954,106.5398788z"/><path fill="#fff" d="M49.9599266,106.5398636h-0.8714561c-0.5947075,0-1.0766983-0.4820023-1.0766983-1.0767288 c0-0.5947189,0.4819908-1.0767288,1.0766983-1.0767288l0.8714561,0.0000076 c0.5947075,0,1.0767021,0.4820023,1.0767021,1.0767212C51.0366287,106.0578613,50.5546341,106.5398636,49.9599266,106.5398636 z"/></g><path fill="#24272b" d="M111.9650116,32.2912941v49.1579094c0,4.5346069-3.6725693,8.2066727-8.2066803,8.2066727H31.2421532 c-4.5346088,0-8.2066746-3.6720657-8.2066746-8.2066727V32.2912941c0-4.5341091,3.6720657-8.2066765,8.2066746-8.2066765 h72.5161743C108.2924423,24.0846176,111.9650116,27.757185,111.9650116,32.2912941z"/><path fill="#13181e" d="M111.9650116,81.4186478v0.0305557c0,4.5346069-3.6725693,8.2066727-8.2066803,8.2066727H31.2421532 c-4.5346088,0-8.2066746-3.6720657-8.2066746-8.2066727V32.2912941c0-4.5341091,3.6720657-8.2066765,8.2066746-8.2066765 h0.0410748c0,15.6645126,6.216116,29.9956398,16.3512402,40.417778 C57.770092,74.9150162,71.8237228,81.4186478,87.4882355,81.4186478H111.9650116z"/><path fill="#43a1ff" d="M103.5153809,34.650383v44.4464569c0,1.1623993-0.9438171,2.113266-2.1132736,2.113266H33.5978775 c-1.1694527,0-2.1132698-0.9508667-2.1132698-2.113266V34.650383c0-1.169281,0.9438171-2.1132698,2.1132698-2.1132698 h67.8042297C102.5715637,32.5371132,103.5153809,33.481102,103.5153809,34.650383z"/><path fill="#2c8cff" d="M103.5134811,34.6501617v0.6835136H36.392662c-1.1596489,0-2.1113205,0.9394569-2.1113205,2.1113205 V81.209465h-0.6835136c-1.171566,0-2.1113205-0.951973-2.1113205-2.1113205V34.6501617 c0-1.171566,0.9397545-2.1113205,2.1113205-2.1113205h67.8043365 C102.5737228,32.5388412,103.5134811,33.4785957,103.5134811,34.6501617z"/><path d="M72.8212051,85.2842865v0.0000687c0,0.8627548-0.6994019,1.5621567-1.5621567,1.5621567h-7.5181122 c-0.862751,0-1.562149-0.6994019-1.562149-1.5621567v-0.0000687c0-0.8627548,0.699398-1.562149,1.562149-1.562149h7.5181122 C72.1218033,83.7221375,72.8212051,84.4215317,72.8212051,85.2842865z"/><path fill="#fff" d="M108.652092,48.4989738v11.0189705c0,0.5947075-0.4820023,1.0767021-1.0767288,1.0767021 c-0.5947189,0-1.0767212-0.4819946-1.0767212-1.0767021l-0.0000076-11.0189705 c0-0.5947113,0.4820023-1.0767021,1.0767288-1.0767021S108.652092,47.9042625,108.652092,48.4989738z" opacity=".3"/><g><path fill="#fff" d="M93.5873489,22.9321041v51.5076599c0,2.1380463-1.7317886,3.8698349-3.8698273,3.8698349H53.4765968 v-8.8620605c0-2.1380463-1.7317848-3.8698349-3.8698273-3.8698349h-8.8615913V22.9321041 c0-2.1380424,1.7313156-3.8698292,3.8698311-3.8698292h45.1025124 C91.8555603,19.0622749,93.5873489,20.7940617,93.5873489,22.9321041z"/><path fill="#e5f5f9" d="M86.0749283,33.0494347h-34.704361c-0.8569641,0-1.5517731-0.6948128-1.5517731-1.5517731 c0-0.8569622,0.694809-1.551775,1.5517731-1.551775h34.704361c0.8569641,0,1.5517731,0.6948128,1.5517731,1.551775 C87.6267014,32.3546219,86.9318924,33.0494347,86.0749283,33.0494347z"/><path fill="#e5f5f9" d="M86.0749283,40.6115189h-34.704361c-0.8569641,0-1.5517731-0.6948128-1.5517731-1.5517731 c0-0.8569641,0.694809-1.5517769,1.5517731-1.5517769h34.704361c0.8569641,0,1.5517731,0.6948128,1.5517731,1.5517769 C87.6267014,39.9167061,86.9318924,40.6115189,86.0749283,40.6115189z"/><path fill="#e5f5f9" d="M80.7617798,48.1739807H51.3705673c-0.8569641,0-1.5517731-0.6948128-1.5517731-1.5517731 c0-0.8569641,0.694809-1.5517769,1.5517731-1.5517769h29.3912125c0.8569641,0,1.5517731,0.6948128,1.5517731,1.5517769 C82.3135529,47.4791679,81.6187439,48.1739807,80.7617798,48.1739807z"/><path fill="#e5f5f9" d="M80.7617798,55.7364426H51.3705673c-0.8569641,0-1.5517731-0.6948128-1.5517731-1.5517731 s0.694809-1.5517731,1.5517731-1.5517731h29.3912125c0.8569641,0,1.5517731,0.6948128,1.5517731,1.5517731 S81.6187439,55.7364426,80.7617798,55.7364426z"/><path fill="#e5f5f9" d="M86.0749283,63.2989044h-34.704361c-0.8569641,0-1.5517731-0.6948128-1.5517731-1.5517731 s0.694809-1.5517731,1.5517731-1.5517731h34.704361c0.8569641,0,1.5517731,0.6948128,1.5517731,1.5517731 S86.9318924,63.2989044,86.0749283,63.2989044z"/><path fill="#d3e6ed" d="M57.1382103,33.0503426h-5.7687607c-0.8526611,0-1.5499954-0.6969719-1.5499954-1.5498142 c0-0.8600826,0.6973343-1.5570545,1.5499954-1.5570545h5.7687607c-0.8602638,0-1.549633,0.6969719-1.549633,1.5570545 C55.5885773,32.3533707,56.2779465,33.0503426,57.1382103,33.0503426z"/><path fill="#d3e6ed" d="M57.1382103,40.6142845h-5.7687607c-0.8526611,0-1.5499954-0.697155-1.5499954-1.5572357 c0-0.8526611,0.6973343-1.5498161,1.5499954-1.5498161h5.7687607c-0.8602638,0-1.549633,0.697155-1.549633,1.5498161 C55.5885773,39.9171295,56.2779465,40.6142845,57.1382103,40.6142845z"/><path fill="#d3e6ed" d="M57.1382103,48.1706238h-5.7687607c-0.8526611,0-1.5499954-0.6895523-1.5499954-1.549633 c0-0.8526611,0.6973343-1.5498161,1.5499954-1.5498161h5.7687607c-0.8602638,0-1.549633,0.697155-1.549633,1.5498161 C55.5885773,47.4810715,56.2779465,48.1706238,57.1382103,48.1706238z"/><path fill="#d3e6ed" d="M57.1382103,55.7345619h-5.7687607c-0.8526611,0-1.5499954-0.6895485-1.5499954-1.5496292 c0-0.8602638,0.6973343-1.5498161,1.5499954-1.5498161h5.7687607c-0.8602638,0-1.549633,0.6895523-1.549633,1.5498161 C55.5885773,55.0450134,56.2779465,55.7345619,57.1382103,55.7345619z"/><path fill="#d3e6ed" d="M57.1382103,63.2985039h-5.7687607c-0.8526611,0-1.5499954-0.6969719-1.5499954-1.549633 c0-0.86026,0.6973343-1.5498123,1.5499954-1.5498123h5.7687607c-0.8602638,0-1.549633,0.6895523-1.549633,1.5498123 C55.5885773,62.601532,56.2779465,63.2985039,57.1382103,63.2985039z"/><g><path fill="#e5f5f9" d="M107.0022736,45.8644829c-0.4999847,1.2070389-1.888382,1.7821236-3.1054993,1.277977 c-1.2075272-0.5001755-1.7826157-1.8885651-1.2826309-3.0956039c0.3580093-0.8642921,1.1538773-1.3972702,2.0208511-1.4633026 l3.1110992-7.5106773c0.4471664-1.0795288-0.0605698-2.3254547-1.1501694-2.776783l-7.0586929-2.9238071 c-0.5402451-0.2237778-0.8028412-0.8385601-0.5750809-1.3883915c0.2235794-0.5397644,0.8481522-0.7988625,1.3883972-0.5750847 l7.0586929,2.9238071c2.1696167,0.8986874,3.1948776,3.3940258,2.3003464,5.5535641l-3.1111069,7.5106773 C107.1783829,44.050972,107.3602905,45.0001869,107.0022736,45.8644829z"/><path fill="#24272b" d="M89.4647598,57.5203552l-2.0210342,4.8790855 c-0.3076935,0.7428131-1.1592941,1.0955505-1.9021149,0.7878647l-0.009819-0.0040665 c-0.7428207-0.3076859-1.0955582-1.1592827-0.7878647-1.9020958l2.0210342-4.8790817L89.4647598,57.5203552z"/><path fill="#ffbc50" d="M105.2804031,30.2791348l-5.4166565,13.0766354l-10.4358292-4.32267l5.4166489-13.0766354 c1.1925812-2.879076,4.4933319-4.2462654,7.3724289-3.0537033l0.0097046,0.0040188 C105.1057968,24.0993423,106.4729843,27.4000568,105.2804031,30.2791348z"/><path fill="#ffb32c" d="M103.4280014,23.5885849c-2.4996109-0.3799725-5.0378036,0.9723759-6.0504761,3.4171333 l-5.4166336,13.07658l-2.5329742-1.0491982l5.416626-13.0765781c1.1915817-2.8766651,4.4958267-4.2453003,7.3725128-3.0537376 l0.0095825,0.0039711C102.6585541,23.085659,103.06604,23.3235245,103.4280014,23.5885849z"/><path fill="#ffb32c" d="M94.8445663,25.9564648c1.1925812-2.879076,4.4933319-4.2462654,7.3724289-3.0537033 l0.0097046,0.0040188c2.879097,1.1925621,4.2462845,4.4932766,3.0537033,7.3723545L94.8445663,25.9564648z"/><path fill="#fc545d" d="M99.8642426,43.3545799l-5.4166565,13.0766335 c-1.1925812,2.8790779-4.4933319,4.2462692-7.3724289,3.0537033l-0.009697-0.0040169 c-2.879097-1.1925621-4.2462921-4.4932785-3.0537109-7.3723564l5.4166565-13.0766335L99.8642426,43.3545799z"/><path fill="#f14448" d="M93.0410614,58.4384117c-1.5704575,1.4308319-3.8754501,1.9137993-5.9664536,1.0476761 l-0.0095901-0.0039711c-2.8766785-1.1915627-4.2453156-4.4957733-3.0539322-7.3719559l5.416832-13.0770607 l2.5229111,1.0450249l-4.3715897,10.553688c-1.1955566,2.8862495,0.1674652,6.176899,3.0537415,7.3724327l0.0095825,0.0039711 C91.4282455,58.3336601,92.2474136,58.4657364,93.0410614,58.4384117z"/></g><g opacity=".3"><path fill="#fff" d="M100.9898148,33.4015465c-0.4825363-0.215847-0.6973495-0.782444-0.4814987-1.2639465 l0.2760315-0.6153717c0.2158432-0.4825401,0.7824402-0.696312,1.2639465-0.4815025 c0.4825439,0.215847,0.6973495,0.782444,0.4815063,1.2639465l-0.2760391,0.6153717 C102.0375671,33.4033089,101.4687881,33.6174774,100.9898148,33.4015465z"/><path fill="#fff" d="M97.6784363,40.7590103c-0.4814987-0.215847-0.696312-0.782444-0.4794235-1.2639503l2.2746887-5.0568275 c0.2158432-0.4825401,0.7782898-0.6983871,1.2639465-0.4794273c0.4815063,0.215847,0.696312,0.782444,0.4794312,1.2639465 l-2.2746887,5.0568275C98.7256393,40.7626534,98.1563721,40.9766045,97.6784363,40.7590103z"/></g><g><path fill="#fc545d" d="M60.5279274,19.0581284v8.2688427c0,0.5649796-0.680481,0.8508034-1.0839233,0.4552822 l-2.8053398-2.7502823c-0.2479286-0.243063-0.6447639-0.243063-0.8926926,0l-2.8053398,2.7502823 c-0.4034386,0.3955212-1.0839233,0.1096973-1.0839233-0.4552822v-8.2688427H60.5279274z"/></g><g><path fill="#f14448" d="M53.5782928,19.0581284h-1.7215843v8.2685833c0,0.5650406,0.680748,0.8509331,1.0839043,0.4555607 l0.6376801-0.6252289V19.0581284z"/></g><g><path fill="#f14448" d="M60.5279274,25.4017353v1.92342c0,0.5634842-0.6802254,0.8504143-1.0839005,0.4571171 l-2.8054886-2.7520428c-0.244381-0.2443848-0.648056-0.2443848-0.8924408,0l-2.8054848,2.7520428 c-0.4036751,0.3932972-1.0839043,0.1063671-1.0839043-0.4571171v-1.92342c0,0.5634823,0.6802292,0.8504143,1.0839043,0.4571171 l2.8054848-2.7520447c0.2443848-0.2443829,0.6480598-0.2443829,0.8924408,0l2.8054886,2.7520447 C59.847702,26.2521496,60.5279274,25.9652176,60.5279274,25.4017353z"/></g></g><g opacity=".3"><path fill="#fff" d="M28.2737885,42.1471863l0.0000019,11.0189705c0,0.5947113-0.4820042,1.0767021-1.0767269,1.0767021 c-0.5947247,0-1.0767269-0.4819908-1.0767269-1.0766983l-0.0000038-11.0189705 c0-0.5947113,0.4820042-1.0767021,1.0767269-1.0767021C27.7917843,41.070488,28.2737885,41.5524788,28.2737885,42.1471863z"/><path fill="#fff" d="M28.2737904,56.8109589v0.8714523c0,0.5947113-0.4820042,1.0767021-1.0767269,1.0767021 s-1.0767269-0.4819908-1.0767269-1.0766983v-0.8714561c0-0.5947075,0.4820023-1.0767021,1.0767269-1.0767021 C27.7917862,55.7342567,28.2737904,56.2162476,28.2737904,56.8109589z"/></g><g><path fill="#d3e6ed" d="M53.4765968,78.3096008v-8.8620605c0-2.1380463-1.7317848-3.8698349-3.8698273-3.8698349h-8.8615913 L53.4765968,78.3096008z"/></g></g></g></svg>