<svg xmlns="http://www.w3.org/2000/svg"  viewBox="0 0 132 132" width="260px" height="260px"><g id="_x33_5"><path fill="#4fe88d" d="M130,65.9949799c0,35.3466797-28.6481781,64.0051422-63.9948578,64.0051422S2,101.3416595,2,65.9949799 S30.6584625,1.9998776,66.0051422,1.9998776S130,30.648304,130,65.9949799z"/><path fill="#35d175" d="M115.2106247,66c0,0.2952499,0,0.5987167-0.0082092,0.8940125 C114.7266464,93.6727676,92.8854294,115.2106247,66,115.2106247c-23.9983902,0-43.9779892-17.1662979-48.3248672-39.9016342 C17.0927372,72.2989502,16.7893753,69.1822891,16.7893753,66c0-27.1724701,22.0299454-49.2106247,49.2106247-49.2106247 C93.1805801,16.7893753,115.2106247,38.8275299,115.2106247,66z"/><path fill="#43a1ff" d="M104.7471924,31.8409557v76.8548813c0,3.1959-2.5907822,5.7866898-5.7866821,5.7866898H33.3541641 c-3.1958981,0-5.786684-2.5907898-5.786684-5.7866898V31.8409557c0-3.1959,2.590786-5.7866859,5.786684-5.7866859h65.6063461 C102.1564102,26.0542698,104.7471924,28.6450558,104.7471924,31.8409557z"/><path fill="#2c8cff" d="M104.2842636,110.9758224c-0.8876877,2.0681305-2.934906,3.5095749-5.3268967,3.5095749H33.3509827 c-3.196291,0-5.7866821-2.5903931-5.7866821-5.7866211V31.8429546c0-2.3919296,1.4624825-4.449667,3.530611-5.3374844 c-0.313406,0.69981-0.4804382,1.4727459-0.4804382,2.2875023v76.8558197c0,3.196228,2.5903912,5.7866135,5.7864285,5.7866135 h65.6063843C102.8115845,111.4354095,103.5845184,111.2683182,104.2842636,110.9758224z"/><path fill="#ffbc50" d="M42.8410645,26.0542889h-9.4869995c-3.1956768,0-5.7866879,2.5907993-5.7866879,5.7866859v76.8548431 c0,3.195961,2.591011,5.7866898,5.7866879,5.7866898h9.4869995V26.0542889z"/><path fill="#ffbc50" d="M42.8457642,26.0563335v88.4290619h-9.4947815c-3.196291,0-5.7866821-2.5903931-5.7866821-5.7866211 V31.8429546c0-3.0838146,2.4674969-5.7866211,5.7866821-5.7866211H42.8457642z"/><path fill="#ffb32c" d="M42.8457642,111.4354095v3.0499878h-9.4947815c-3.196291,0-5.7866821-2.5903931-5.7866821-5.7866211 V31.8429546c0-2.07061,1.1939373-4.1698475,3.0292625-5.0868092c0.1565762-0.0939713,0.3340626-0.1670952,0.5013485-0.2506752 c-0.313406,0.69981-0.4804382,1.4727459-0.4804382,2.2875023v76.8558197c0,3.196228,2.5903912,5.7866135,5.7864285,5.7866135 H42.8457642z"/><path fill="#2c8cff" d="M33.3541641,26.0542698l57.117775-11.870739c2.1555939-0.4479952,4.1784973,1.1977158,4.1784973,3.399374 v8.471365H33.3541641z"/><path fill="#fff" d="M34.5115013,37.6905861c0,0.8564186-0.6945152,1.5508652-1.5509338,1.5508652h-6.1571121 c-0.8564167,0-1.5506496-0.6944466-1.5506496-1.5508652c0-0.8564148,0.6942329-1.5508614,1.5506496-1.5508614h6.1571121 C33.8169861,36.1397247,34.5115013,36.8341713,34.5115013,37.6905861z"/><path fill="#fff" d="M34.5115013,46.9985313c0,0.8564186-0.6945152,1.5508652-1.5509338,1.5508652h-6.1571121 c-0.8564167,0-1.5506496-0.6944466-1.5506496-1.5508652c0-0.8564148,0.6942329-1.5508614,1.5506496-1.5508614h6.1571121 C33.8169861,45.44767,34.5115013,46.1421165,34.5115013,46.9985313z"/><path fill="#fff" d="M34.5115013,56.3064766c0,0.8564186-0.6945152,1.5508652-1.5509338,1.5508652h-6.1571121 c-0.8564167,0-1.5506496-0.6944466-1.5506496-1.5508652c0-0.8564148,0.6942329-1.5508614,1.5506496-1.5508614h6.1571121 C33.8169861,54.7556152,34.5115013,55.4500618,34.5115013,56.3064766z"/><path fill="#fff" d="M34.5115013,65.6144257c0,0.8564148-0.6945152,1.5508575-1.5509338,1.5508575h-6.1571121 c-0.8564167,0-1.5506496-0.6944427-1.5506496-1.5508575c0-0.8564224,0.6942329-1.5508652,1.5506496-1.5508652h6.1571121 C33.8169861,64.0635605,34.5115013,64.7580032,34.5115013,65.6144257z"/><path fill="#fff" d="M34.5115013,74.9223709c0,0.8564148-0.6945152,1.5508575-1.5509338,1.5508575h-6.1571121 c-0.8564167,0-1.5506496-0.6944427-1.5506496-1.5508575c0-0.8564224,0.6942329-1.5508652,1.5506496-1.5508652h6.1571121 C33.8169861,73.3715057,34.5115013,74.0659485,34.5115013,74.9223709z"/><path fill="#fff" d="M34.5115013,84.2303162c0,0.8564148-0.6945152,1.5508575-1.5509338,1.5508575h-6.1571121 c-0.8564167,0-1.5506496-0.6944427-1.5506496-1.5508575c0-0.8564224,0.6942329-1.5508652,1.5506496-1.5508652h6.1571121 C33.8169861,82.679451,34.5115013,83.3738937,34.5115013,84.2303162z"/><path fill="#fff" d="M34.5115013,93.5382614c0,0.8564148-0.6945152,1.5508575-1.5509338,1.5508575h-6.1571121 c-0.8564167,0-1.5506496-0.6944427-1.5506496-1.5508575c0-0.8564224,0.6942329-1.5508652,1.5506496-1.5508652h6.1571121 C33.8169861,91.9873962,34.5115013,92.681839,34.5115013,93.5382614z"/><path fill="#fff" d="M34.5115013,102.8462067c0,0.8564148-0.6945152,1.5508575-1.5509338,1.5508575h-6.1571121 c-0.8564167,0-1.5506496-0.6944427-1.5506496-1.5508575c0-0.8564224,0.6942329-1.5508652,1.5506496-1.5508652h6.1571121 C33.8169861,101.2953415,34.5115013,101.9897842,34.5115013,102.8462067z"/><g opacity=".3"><path fill="#fff" d="M101.4536591,31.9892025v38.3965759c0,0.8356018-0.6788406,1.5145645-1.5145035,1.5145645 c-0.8356705,0-1.5145035-0.6789627-1.5145035-1.5145645V31.9892025c0-0.8356037,0.678833-1.5145683,1.5145035-1.5145683 C100.7748184,30.4746342,101.4536591,31.1535988,101.4536591,31.9892025z"/><path fill="#fff" d="M101.4536591,75.6547775v7.0609665c0,0.8356094-0.6788406,1.5145721-1.5145035,1.5145721 c-0.8356705,0-1.5145035-0.6789627-1.5145035-1.5145721v-7.0609665c0-0.8356018,0.678833-1.5145645,1.5145035-1.5145645 C100.7748184,74.140213,101.4536591,74.8191757,101.4536591,75.6547775z"/></g><g><path fill="#fff" d="M48.869606,65.0258331c-0.1484375-0.1474609-0.2216797-0.3295898-0.2216797-0.5458984V54.2890205 c0-0.3076172,0.1074219-0.5722656,0.3242188-0.7939453c0.2158203-0.222168,0.4775391-0.3330078,0.7851563-0.3330078h0.5634766 c0.2275391,0,0.4345703,0.0683594,0.6230469,0.2050781c0.1875,0.1362305,0.3261719,0.3071289,0.4179688,0.5117188 l3.875,9.6621094l3.875-9.6621094c0.0908203-0.2045898,0.2304688-0.3754883,0.4179688-0.5117188 c0.1875-0.1367188,0.3955078-0.2050781,0.6230469-0.2050781h0.5634766c0.3076172,0,0.5683594,0.1108398,0.7851563,0.3330078 c0.2158203,0.2216797,0.3242188,0.4863281,0.3242188,0.7939453v10.1909142 c0,0.2163086-0.0742188,0.3984375-0.2216797,0.5458984c-0.1484375,0.1479492-0.3300781,0.222168-0.546875,0.222168 c-0.2158203,0-0.4003906-0.0742188-0.5546875-0.222168c-0.1533203-0.1474609-0.2304688-0.3295898-0.2304688-0.5458984 v-9.6962852l-3.9423828,9.7470665c-0.0917969,0.2163086-0.2363281,0.3901367-0.4355469,0.5209961 c-0.1992188,0.1303711-0.4179688,0.1962891-0.6572266,0.1962891s-0.4580078-0.065918-0.6572266-0.1962891 c-0.1992188-0.1308594-0.3447266-0.3046875-0.4355469-0.5209961l-3.9433594-9.7470665v9.6962852 c0,0.2163086-0.0761719,0.3984375-0.2304688,0.5458984c-0.1533203,0.1479492-0.3388672,0.222168-0.5546875,0.222168 S49.017067,65.1737823,48.869606,65.0258331z"/><path fill="#fff" d="M61.057106,65.5478058c-0.2939453,0-0.5507813-0.1025391-0.7626953-0.3056641 c-0.2109375-0.203125-0.3222656-0.4663086-0.3222656-0.762207v-8.1542931l-3.3642578,8.317379 c-0.1171875,0.2763672-0.3017578,0.496582-0.5488281,0.659668c-0.4980469,0.3251953-1.1474609,0.3251953-1.6435547,0 c-0.25-0.1640625-0.4345703-0.3847656-0.5478516-0.6557617l-3.3671875-8.3217735v8.1547813 c0,0.296875-0.1113281,0.5605469-0.3232422,0.7626953c-0.4160156,0.4023438-1.1113281,0.402832-1.5195313-0.0039063 c-0.2050781-0.2045898-0.3095703-0.4599609-0.3095703-0.7587891V54.2890205 c0-0.3881836,0.1376953-0.7255859,0.4091797-1.0039063c0.2734375-0.2802734,0.609375-0.4228516,1-0.4228516h0.5634766 c0.2900391,0,0.5595703,0.0878906,0.7988281,0.262207c0.2285156,0.1660156,0.4023438,0.378418,0.515625,0.6313477 l3.6015625,8.9790039l3.5966797-8.9677734c0.1162109-0.2626953,0.2900391-0.4755859,0.5195313-0.6425781 c0.2392578-0.1738281,0.5078125-0.262207,0.7998047-0.262207h0.5634766c0.3896484,0,0.7255859,0.1420898,1,0.4233398 c0.2714844,0.2792969,0.4091797,0.6166992,0.4091797,1.003418v10.1909142 c0,0.2973633-0.1035156,0.5527344-0.3095703,0.7578125C61.6098404,65.4438019,61.353981,65.5478058,61.057106,65.5478058z M60.2719498,54.4838448c0.0185547,0,0.0380859,0.0014648,0.0576172,0.0053711 c0.140625,0.0273438,0.2421875,0.1508789,0.2421875,0.2944336v9.6962852c0,0.1342773,0.0439453,0.2387695,0.1386719,0.3295898 c0.1972656,0.1879883,0.4980469,0.1879883,0.6816406,0.0039063c0.0908203-0.0908203,0.1337891-0.1972656,0.1337891-0.3334961 V54.2890205c0-0.2280273-0.078125-0.4194336-0.2392578-0.5844727 c-0.1611328-0.1655273-0.3427734-0.2426758-0.5703125-0.2426758h-0.5634766 c-0.1640625,0-0.3105469,0.0483398-0.4462891,0.1474609c-0.1464844,0.1064453-0.2509766,0.234375-0.3203125,0.3911133 l-3.8710938,9.6523438c-0.0917969,0.2275391-0.4648438,0.2275391-0.5566406,0l-3.875-9.6621094 c-0.0664063-0.1474609-0.171875-0.2758789-0.3164063-0.3808594c-0.1367188-0.0991211-0.2832031-0.1479492-0.4462891-0.1479492 h-0.5634766c-0.2255859,0-0.4121094,0.0795898-0.5703125,0.2421875 c-0.1611328,0.1650391-0.2392578,0.355957-0.2392578,0.5849609v10.1909142 c0,0.137207,0.0429688,0.2426758,0.1337891,0.3330078c0,0.0004883,0,0.0009766,0.0009766,0.0009766 c0.1826172,0.1835938,0.4853516,0.1831055,0.6796875-0.0039063c0.0947266-0.0908203,0.1386719-0.1953125,0.1386719-0.3300781 v-9.6962852c0-0.1435547,0.1015625-0.2670898,0.2421875-0.2944336 c0.1484375-0.0273438,0.2822266,0.0488281,0.3359375,0.1821289l3.9433594,9.7470665 c0.0664063,0.1577148,0.171875,0.2841797,0.3222656,0.3823242c0.3007813,0.1982422,0.6826172,0.1982422,0.9853516,0 c0.1484375-0.0976563,0.2539063-0.2241211,0.3232422-0.387207l3.9404297-9.7421837 C60.0405045,54.5561104,60.1518326,54.4838448,60.2719498,54.4838448z"/><path fill="#fff" d="M65.2299576,64.1469269c-0.7792969-0.7910118-1.1689453-1.9033165-1.1689453-3.3373985 c0-0.8076172,0.1474609-1.5532227,0.4443359-2.2363281c0.2949219-0.6826172,0.7509766-1.234375,1.3652344-1.6557617 c0.6142578-0.4208984,1.3710938-0.6313477,2.2705078-0.6313477c0.8417969,0,1.5703125,0.1962891,2.1845703,0.5888672 s1.0810547,0.9160156,1.4003906,1.5703125c0.3183594,0.6547852,0.4775391,1.3686523,0.4775391,2.1425781 c0,0.2163086-0.0712891,0.3984375-0.2138672,0.5458984c-0.1416016,0.1484375-0.3320313,0.222168-0.5712891,0.222168 h-5.7871094c0.0908203,0.796875,0.3867188,1.4169922,0.8876953,1.8608398s1.2001953,0.6655273,2.0996094,0.6655273 c0.4785156,0,0.8964844-0.0454102,1.2548828-0.1367188c0.3583984-0.0908203,0.7080078-0.2216797,1.0498047-0.3925781 c0.0908203-0.0454102,0.1933594-0.0683594,0.3076172-0.0683594c0.1816406,0,0.3408203,0.0629883,0.4775391,0.1879883 c0.1367188,0.1254883,0.2050781,0.284668,0.2050781,0.4780273c0,0.2504845-0.1484375,0.4609337-0.4443359,0.6313438 c-0.4433594,0.2504883-0.8818359,0.4384766-1.3144531,0.5634766s-0.9892578,0.1879883-1.6728516,0.1879883 C67.0932388,65.3334503,66.0092545,64.9379425,65.2299576,64.1469269z M70.6674576,60.0927315 c-0.0341797-0.5576172-0.1796875-1.0244141-0.4355469-1.3999023s-0.5722656-0.6513672-0.9472656-0.8276367 c-0.3759766-0.1762695-0.7568359-0.2646484-1.1435547-0.2646484c-0.3876953,0-0.7685547,0.0883789-1.1435547,0.2646484 c-0.3759766,0.1762695-0.6894531,0.4521484-0.9394531,0.8276367s-0.3925781,0.8422852-0.4267578,1.3999023H70.6674576z"/><path fill="#fff" d="M68.4819107,65.633255c-1.4658203,0-2.6318359-0.4291992-3.4658203-1.2758789 c-0.8330078-0.845211-1.2548828-2.0390587-1.2548828-3.5478477c0-0.8466797,0.1572266-1.6396484,0.46875-2.355957 c0.3154297-0.7304688,0.8105469-1.3305664,1.4707031-1.7836914c0.6630859-0.4536133,1.4833984-0.6835938,2.4404297-0.6835938 c0.8964844,0,1.6855469,0.2138672,2.3457031,0.6357422c0.6591797,0.4208984,1.1660156,0.9902344,1.5087891,1.6918945 c0.3369141,0.6928711,0.5078125,1.4580078,0.5078125,2.2739258c0,0.2958984-0.1005859,0.5498047-0.2978516,0.7543945 c-0.1982422,0.2075195-0.4638672,0.3134766-0.7871094,0.3134766h-5.4355469 c0.1162109,0.5639648,0.3583984,1.0029297,0.7353516,1.3364258c0.4414063,0.3916016,1.0810547,0.590332,1.9003906,0.590332 c0.4511719,0,0.8486328-0.0429688,1.1806641-0.1274414c0.3359375-0.0854492,0.6689453-0.2099609,0.9902344-0.3706055 c0.3466797-0.1723633,0.8076172-0.1206055,1.1210938,0.1669922c0.1982422,0.1816406,0.3027344,0.4233398,0.3027344,0.6992188 c0,0.2504845-0.1025391,0.6083946-0.5947266,0.8911095c-0.4638672,0.262207-0.9277344,0.4609375-1.3808594,0.5917969 C69.7787857,65.5663605,69.1879654,65.633255,68.4819107,65.633255z M68.1410904,56.5858955 c-0.8339844,0-1.5400391,0.1948242-2.1005859,0.5791016c-0.5654297,0.3876953-0.9892578,0.9018555-1.2597656,1.5273438 c-0.2783203,0.6411133-0.4199219,1.3530273-0.4199219,2.1171875c0,1.3457031,0.3642578,2.3974609,1.0830078,3.1269722 c0.7167969,0.7280045,1.7392578,1.0971451,3.0380859,1.0971451c0.6503906,0,1.1845703-0.0595703,1.5898438-0.1762695 c0.4082031-0.1181641,0.8291016-0.2988281,1.25-0.5366211c0.2919922-0.1679688,0.2919922-0.3203125,0.2919922-0.3701134 c0-0.109375-0.0332031-0.1884766-0.1083984-0.2568359c-0.1328125-0.1210938-0.3193359-0.1362305-0.4482422-0.0722656 c-0.359375,0.1796875-0.7333984,0.3193359-1.1103516,0.4150352c-0.3798828,0.0966797-0.8261719,0.1455078-1.328125,0.1455078 c-0.9707031,0-1.7431641-0.2490196-2.2988281-0.7407188c-0.5556641-0.4926758-0.8876953-1.1826172-0.9863281-2.0512695 c-0.0097656-0.0849609,0.0175781-0.1704102,0.0742188-0.2338867c0.0566406-0.0639648,0.1376953-0.1000977,0.2236328-0.1000977 h5.7871094c0.2070313,0,0.3017578-0.0737305,0.3544922-0.1293945 c0.0898438-0.0927734,0.1308594-0.2001953,0.1308594-0.3388672c0-0.7241211-0.1503906-1.4008789-0.4472656-2.0112305 c-0.2929688-0.6005859-0.7285156-1.0883789-1.2919922-1.4487305 C69.6020279,56.7685127,68.9213638,56.5858955,68.1410904,56.5858955z M70.6674576,60.3925362h-5.0361328 c-0.0830078,0-0.1621094-0.0341797-0.21875-0.0942383s-0.0859375-0.1411133-0.0810547-0.2241211 c0.0380859-0.6079102,0.1982422-1.1289063,0.4765625-1.5478516c0.2802734-0.4194336,0.6367188-0.7333984,1.0625-0.9326172 c0.8242188-0.3886719,1.7109375-0.3896484,2.5410156,0c0.4238281,0.1992188,0.7832031,0.512207,1.0683594,0.9301758 c0.2861328,0.4194336,0.4492188,0.9414063,0.4873047,1.550293c0.0048828,0.0830078-0.0244141,0.1640625-0.0810547,0.2241211 S70.7504654,60.3925362,70.6674576,60.3925362z M65.9653091,59.7929268h4.3681641 c-0.0576172-0.3623047-0.1748047-0.6748047-0.3496094-0.9311523c-0.2236328-0.328125-0.5019531-0.5722656-0.8271484-0.7250977 c-0.6689453-0.3134766-1.3662109-0.3129883-2.03125,0c-0.3251953,0.1523438-0.5996094,0.3950195-0.8173828,0.722168 C66.1362076,59.116169,66.0219498,59.4296455,65.9653091,59.7929268z"/><g><path fill="#fff" d="M74.4740982,65.0258331c-0.1474609-0.1474609-0.2216797-0.3295898-0.2216797-0.5458984v-7.3232384 c0-0.2163086,0.0742188-0.4013672,0.2216797-0.5546875c0.1474609-0.1538086,0.3300781-0.2304688,0.546875-0.2304688 c0.2158203,0,0.4003906,0.0766602,0.5546875,0.2304688c0.1533203,0.1533203,0.2304688,0.3383789,0.2304688,0.5546875v0.699707 c0.4316406-0.4780273,0.8984375-0.8588867,1.3994141-1.1435547c0.5009766-0.2841797,1.0927734-0.4267578,1.7753906-0.4267578 c0.6259766,0,1.1689453,0.1479492,1.6298828,0.4438477s0.8134766,0.699707,1.0585938,1.2119141 c0.2441406,0.512207,0.3671875,1.0751953,0.3671875,1.6899414v4.8481407c0,0.2163086-0.0771484,0.3984375-0.2304688,0.5458984 c-0.1542969,0.1479492-0.3388672,0.222168-0.5546875,0.222168c-0.2167969,0-0.3984375-0.0742188-0.546875-0.222168 c-0.1474609-0.1474609-0.2216797-0.3295898-0.2216797-0.5458984v-4.6772423 c0-1.3886719-0.6259766-2.0830078-1.8779297-2.0830078c-0.5693359,0-1.078125,0.1484375-1.5273438,0.4438477 c-0.4501953,0.2963867-0.8740234,0.6943359-1.2714844,1.1953125v5.1210899 c0,0.2163086-0.0771484,0.3984375-0.2304688,0.5458984c-0.1542969,0.1479492-0.3388672,0.222168-0.5546875,0.222168 C74.8041763,65.2480011,74.6215591,65.1737823,74.4740982,65.0258331z"/><path fill="#fff" d="M81.251442,65.5478058c-0.296875,0-0.5527344-0.1040039-0.7587891-0.3095703 s-0.3095703-0.4609375-0.3095703-0.7583008v-4.6772423c0-1.2163086-0.5019531-1.7832031-1.578125-1.7832031 c-0.5126953,0-0.9589844,0.1293945-1.3623047,0.3945313c-0.3984375,0.262207-0.7802734,0.6152344-1.1367188,1.0507813 v5.0151329c0,0.2958984-0.1113281,0.559082-0.3222656,0.762207c-0.4238281,0.40625-1.1162109,0.4018555-1.5224609-0.0043945 c-0.2050781-0.2055664-0.3085938-0.4604492-0.3085938-0.7578125v-7.3232384 c0-0.2954102,0.1025391-0.5517578,0.3056641-0.7626953c0.4042969-0.421875,1.1054688-0.4262695,1.5292969-0.0043945 c0.2070313,0.206543,0.3134766,0.4580078,0.3183594,0.7470703c0.3027344-0.2675781,0.6210938-0.496582,0.9511719-0.6845703 c0.5449219-0.309082,1.1923828-0.4658203,1.9238281-0.4658203c0.6806641,0,1.2841797,0.1650391,1.7919922,0.4912109 c0.5058594,0.324707,0.8984375,0.7739258,1.1669922,1.3349609c0.2636719,0.5522461,0.3964844,1.1640625,0.3964844,1.8193359 v4.8481407c0,0.2958984-0.1113281,0.559082-0.3222656,0.762207 C81.8022232,65.4452667,81.5453873,65.5478058,81.251442,65.5478058z M78.6049576,57.4198799 c0.9931641,0,2.1777344,0.4130859,2.1777344,2.3828125v4.6772423c0,0.1362305,0.0429688,0.2426758,0.1337891,0.3339844 c0.1845703,0.1831055,0.484375,0.1831055,0.6816406-0.0043945c0.0947266-0.0908203,0.1386719-0.1953125,0.1386719-0.3295898 V59.631794c0-0.5649414-0.1142578-1.090332-0.3378906-1.5610352 c-0.2226563-0.4648438-0.5332031-0.8208008-0.9501953-1.0883789 c-0.4091797-0.2631836-0.9033203-0.3964844-1.4677734-0.3964844c-0.6259766,0-1.1738281,0.1308594-1.6269531,0.3876953 c-0.4726563,0.2680664-0.9179688,0.6328125-1.3251953,1.0839844 c-0.0830078,0.0917969-0.2148438,0.1235352-0.3300781,0.0786133 c-0.1162109-0.0444336-0.1923828-0.1557617-0.1923828-0.2797852v-0.699707 c0-0.1362305-0.0458984-0.2451172-0.1425781-0.3427734c-0.1943359-0.1933594-0.4931641-0.1938477-0.6728516-0.0043945 c-0.0947266,0.0981445-0.1386719,0.2084961-0.1386719,0.347168v7.3232384 c0,0.1362305,0.0429688,0.2426758,0.1337891,0.3339844c0,0,0,0,0.0009766,0 c0.1816406,0.1831055,0.484375,0.1831055,0.6806641-0.0043945c0.0947266-0.0908203,0.1386719-0.1953125,0.1386719-0.3295898 v-5.1210899c0-0.0678711,0.0224609-0.1333008,0.0644531-0.1865234 c0.4150391-0.5224609,0.8662109-0.9462891,1.3417969-1.2592773 C77.4106216,57.5854073,77.9799576,57.4198799,78.6049576,57.4198799z"/></g><g><path fill="#fff" d="M85.9203873,64.8896027c-0.4609375-0.2958984-0.8134766-0.7001953-1.0585938-1.2123985 c-0.2441406-0.5117188-0.3662109-1.0751953-0.3662109-1.6899414v-4.8476563 c0-0.2163086,0.0761719-0.3984375,0.2294922-0.5463867c0.1542969-0.1479492,0.3388672-0.2216797,0.5556641-0.2216797 c0.2158203,0,0.3974609,0.0737305,0.5458984,0.2216797c0.1474609,0.1479492,0.2216797,0.3300781,0.2216797,0.5463867 v4.6772461c0,1.3886719,0.6259766,2.0825195,1.8779297,2.0825195c0.5693359,0,1.078125-0.1479492,1.5273438-0.4438477 c0.4501953-0.2958984,0.8740234-0.6938477,1.2724609-1.1948242v-5.1210938 c0-0.2163086,0.0761719-0.3984375,0.2304688-0.5463867c0.1533203-0.1479492,0.3378906-0.2216797,0.5546875-0.2216797 c0.2158203,0,0.3984375,0.0737305,0.5458984,0.2216797s0.2216797,0.3300781,0.2216797,0.5463867v7.3232384 c0,0.2163086-0.0742188,0.4008789-0.2216797,0.5546875c-0.1474609,0.1533203-0.3300781,0.2304688-0.5458984,0.2304688 c-0.2167969,0-0.4013672-0.0771484-0.5546875-0.2304688c-0.1542969-0.1538086-0.2304688-0.3383789-0.2304688-0.5546875 v-0.7001915c-0.4326172,0.4780235-0.8994141,0.8593712-1.4003906,1.1440392 c-0.5009766,0.2841797-1.0917969,0.4267578-1.7753906,0.4267578 C86.9242935,65.3334503,86.3813248,65.1850128,85.9203873,64.8896027z"/><path fill="#fff" d="M87.5502701,65.633255c-0.6806641,0-1.2832031-0.1650391-1.7919922-0.4912109l0,0 c-0.5058594-0.324707-0.8984375-0.7739258-1.1669922-1.3354454c-0.2626953-0.550293-0.3955078-1.1621094-0.3955078-1.8193359 v-4.8476563c0-0.300293,0.1074219-0.5566406,0.3212891-0.762207c0.4248047-0.4072266,1.1113281-0.4057617,1.5214844,0.003418 c0.2060547,0.206543,0.3095703,0.4614258,0.3095703,0.7587891v4.6772461c0,1.2163086,0.5019531,1.7827148,1.578125,1.7827148 c0.5136719,0,0.9589844-0.1293945,1.3623047-0.3945313c0.3974609-0.2612305,0.7792969-0.6142578,1.1376953-1.050293 v-5.0151367c0-0.3007813,0.1083984-0.5576172,0.3222656-0.7626953 c0.4189453-0.4042969,1.1152344-0.4023438,1.5214844,0.0043945c0.2050781,0.2060547,0.3085938,0.4609375,0.3085938,0.7583008 v7.3232384c0,0.2944336-0.1025391,0.5512695-0.3046875,0.762207c-0.4072266,0.4243164-1.109375,0.4257813-1.5292969,0.0043945 c-0.2070313-0.2055664-0.3134766-0.4575195-0.3183594-0.7475586 c-0.3037109,0.2680664-0.6220703,0.4980469-0.9521484,0.6855469 C88.9291763,65.4765167,88.2817154,65.633255,87.5502701,65.633255z M86.0824966,64.6371613 c0.4101563,0.2626953,0.9042969,0.3964844,1.4677734,0.3964844c0.6259766,0,1.1738281-0.1308594,1.6269531-0.3876953 c0.4707031-0.2675781,0.9169922-0.6323242,1.3261719-1.0844498c0.0839844-0.0927925,0.2177734-0.1235542,0.3300781-0.0786324 c0.1162109,0.0444336,0.1923828,0.1557617,0.1923828,0.2797852v0.7001915 c0,0.1367188,0.0449219,0.2456055,0.1425781,0.3422852c0.1923828,0.1928711,0.4892578,0.1953125,0.6728516,0.0043945 c0.09375-0.0981445,0.1376953-0.2084961,0.1376953-0.3466797v-7.3232384c0-0.1362305-0.0429688-0.2426758-0.1347656-0.3344727 c-0.1835938-0.184082-0.4863281-0.1826172-0.6796875,0.0039063c-0.0947266,0.0908203-0.1386719,0.1958008-0.1386719,0.3305664 v5.1210938c0,0.0678711-0.0224609,0.1337891-0.0654297,0.1865234 c-0.4160156,0.5234375-0.8671875,0.9472656-1.3417969,1.2587891 c-0.4970703,0.3271446-1.0664063,0.4931602-1.6923828,0.4931602c-0.9931641,0-2.1777344-0.4130821-2.1777344-2.3823204 v-4.6772461c0-0.1362305-0.0429688-0.2426758-0.1347656-0.3344727 c-0.1835938-0.1835938-0.4873047-0.1821289-0.6806641,0.0043945c-0.09375,0.090332-0.1376953,0.1953125-0.1376953,0.3300781 v4.8476563c0,0.5668945,0.1132813,1.0922852,0.3369141,1.5605469 C85.3520279,64.0067902,85.6723404,64.3734894,86.0824966,64.6371613L86.0824966,64.6371613z"/></g><g><path fill="#fff" d="M75.2256393,73.7243729c0-0.7869644-0.6379623-1.4249344-1.4249344-1.4249344H51.5732231 c-0.7879829,0-1.4300957,0.641922-1.4300957,1.4297791c0,0.7879181,0.6421127,1.4201508,1.4300957,1.4201508H73.800705 c0.786972,0,1.4249344-0.63797,1.4249344-1.4249344V73.7243729z"/><path fill="#fff" d="M89.352417,72.2994385h-7.8125381c-0.786972,0-1.4249344,0.63797-1.4249344,1.4249344v0.000061 c0,0.7869644,0.6379623,1.4249344,1.4249344,1.4249344h7.8125381c0.7879791,0,1.4298401-0.6322327,1.4298401-1.4201508 C90.7822571,72.9413605,90.1403961,72.2994385,89.352417,72.2994385z"/><g><path fill="#fff" d="M65.6997452,81.0830307c0-0.7869644,0.63797-1.4249344,1.4249344-1.4249344h22.2274857 c0.7879791,0,1.4300919,0.6419296,1.4300919,1.4297791c0,0.7879181-0.6421127,1.4201508-1.4300919,1.4201508H67.1246796 c-0.7869644,0-1.4249344-0.6379623-1.4249344-1.4249344V81.0830307z"/><path fill="#fff" d="M51.5729675,79.6580963h7.812542c0.7869682,0,1.4249344,0.63797,1.4249344,1.4249344v0.000061 c0,0.786972-0.6379662,1.4249344-1.4249344,1.4249344h-7.812542c-0.7879791,0-1.4298401-0.6322327-1.4298401-1.4201508 C50.1431274,80.3000259,50.7849884,79.6580963,51.5729675,79.6580963z"/></g><g><path fill="#fff" d="M75.2256393,88.4416962c0-0.786972-0.6379623-1.4249344-1.4249344-1.4249344H51.5732231 c-0.7879829,0-1.4300957,0.641922-1.4300957,1.4297714c0,0.7879181,0.6421127,1.4201508,1.4300957,1.4201508H73.800705 c0.786972,0,1.4249344-0.6379623,1.4249344-1.4249344V88.4416962z"/><path fill="#fff" d="M89.352417,87.0167618h-7.8125381c-0.786972,0-1.4249344,0.6379623-1.4249344,1.4249344v0.0000534 c0,0.786972,0.6379623,1.4249344,1.4249344,1.4249344h7.8125381c0.7879791,0,1.4298401-0.6322327,1.4298401-1.4201508 C90.7822571,87.6586838,90.1403961,87.0167618,89.352417,87.0167618z"/></g></g></g></g></svg>