<svg xmlns="http://www.w3.org/2000/svg"  viewBox="0 0 135 135" width="260px" height="260px"><g id="_x36_6"><path fill="#9ee6ff" d="M131.4911194,67.5c0,35.3391495-28.6430893,64-64.0000076,64 c-35.3391418,0-63.9822273-28.6608505-63.9822273-64s28.6430855-64,63.9822273-64 C102.8480301,3.5,131.4911194,32.1608543,131.4911194,67.5z"/><circle cx="67.107" cy="67.889" r="49.201" fill="#76d8ff"/><path fill="#ffbc50" d="M100.7612686,29.9035568v78.2749252c0,3.5900421-2.9103012,6.5003433-6.5003433,6.5003433H28.9469585 c-3.5900383,0-6.5003395-2.9103012-6.5003395-6.5003433V29.9035568c0-3.5900383,2.9103012-6.5003395,6.5003395-6.5003395 h65.3139648C97.8509674,23.4032173,100.7612686,26.3135185,100.7612686,29.9035568z"/><path fill="#ffb32c" d="M100.7576752,106.9623947v1.2133942c0,3.5860138-2.9143219,6.5003357-6.5003433,6.5003357H28.950552 c-3.5860195,0-6.5003414-2.9143219-6.5003414-6.5003357V29.9008579c0-3.5860176,2.9034786-6.5003395,6.5003414-6.5003395 h1.2133904v12.968214C30.1639423,75.3599243,61.7664757,106.9623947,100.7576752,106.9623947z"/><path fill="#fff" d="M30.0305691,100.5947037V37.4872322c0-3.5900383,2.9103031-6.5003395,6.5003414-6.5003395h50.1459312 c3.5900421,0,6.5003433,2.9103012,6.5003433,6.5003395v63.1074715c0,3.5900345-2.9103012,6.5003357-6.5003433,6.5003357 H36.5309105C32.9408722,107.0950394,30.0305691,104.1847382,30.0305691,100.5947037z"/><path fill="#e5f5f9" d="M92.4914017,103.4739075c-1.0509262,2.1450958-3.2610168,3.6184921-5.8178024,3.6184921H36.5342827 c-3.5900383,0-6.5003414-2.9103088-6.5003414-6.5003433V37.4845886c0-2.5567856,1.4733944-4.7669449,3.6185513-5.8286438 c-0.4333801,0.8666992-0.6716957,1.841774-0.6716957,2.881855V98.728653c0,2.9916992,2.425251,5.416954,5.4169502,5.416954 h51.2334862C90.6604691,104.145607,91.6354828,103.9072266,92.4914017,103.4739075z"/><path fill="#24272b" d="M77.8981018,23.1539307v7.6703548c0,1.1966801-0.9701004,2.1667805-2.1667786,2.1667805H47.4765587 c-1.1966782,0-2.1667786-0.9701004-2.1667786-2.1667805v-7.6703548c0-1.1966782,0.9701004-2.1667786,2.1667786-2.1667786 h8.2878952v-1.0583019c-0.0000038-3.3208122,2.7191391-6.220561,6.0381279-6.1104422 c1.5353661,0.0509405,2.9214935,0.6904364,3.9290771,1.708415c1.0616989,1.0509224,1.7117691,2.5134735,1.7117691,4.1169357 v1.3433933h8.2878952C76.9280014,20.9871521,77.8981018,21.9572525,77.8981018,23.1539307z"/><path fill="#13181e" d="M77.8981018,29.131628v1.6900845c0,1.2026138-0.9750061,2.1667786-2.1667786,2.1667786H47.4765587 c-1.1917686,0-2.1667786-0.9641647-2.1667786-2.1667786v-7.6703529c0-1.1917686,0.9750099-2.1667805,2.1667786-2.1667805 h1.841713c0.8017616,4.62603,4.8319435,8.147049,9.6855087,8.147049H77.8981018z"/><path fill="#fff" d="M63.6894722,18.9473457c0,1.1514072-0.9400024,2.0913372-2.0914116,2.0913372 c-1.1396446,0-2.0796471-0.93993-2.0796471-2.0913372c0-1.139719,0.9400024-2.079649,2.0796471-2.079649 C62.7494698,16.8676968,63.6894722,17.8076267,63.6894722,18.9473457z"/><path fill="#d3e6ed" d="M63.326561,17.7885647c-0.3250694-0.2275352-0.7259178-0.3575363-1.1592331-0.3575363 c-1.1376152,0-2.0801582,0.942543-2.0801582,2.0801563c0,0.4333172,0.1300011,0.8450108,0.3575363,1.1700134 c-0.563385-0.3791599-0.9316978-1.0183887-0.9316978-1.7333965c0-1.1375465,0.942543-2.0800915,2.0800896-2.0800915 C62.3081703,16.8677101,62.9473343,17.2360268,63.326561,17.7885647z"/><path fill="#4fe88d" d="M48.6952744,61.7503014v8.5804329c0,1.1966782-0.9701004,2.1667786-2.1667786,2.1667786h-8.5804329 c-1.1966782,0-2.1667786-0.9701004-2.1667786-2.1667786v-8.5804329c0-1.196682,0.9701004-2.1667824,2.1667786-2.1667824 h8.5804329C47.725174,59.583519,48.6952744,60.5536194,48.6952744,61.7503014z"/><path fill="#4fe88d" d="M48.6952744,82.4882889v8.5804291c0,1.1966782-0.9701004,2.1667786-2.1667786,2.1667786h-8.5804329 c-1.1966782,0-2.1667786-0.9701004-2.1667786-2.1667786v-8.5804291c0-1.1966782,0.9701004-2.1667786,2.1667786-2.1667786 h8.5804329C47.725174,80.3215103,48.6952744,81.2916107,48.6952744,82.4882889z"/><path fill="#35d175" d="M48.6952744,90.7121048v0.3574677c0,1.1917343-0.9750519,2.1667862-2.1667786,2.1667862h-8.5804329 c-1.1917267,0-2.1667786-0.9750519-2.1667786-2.1667862v-8.5804291c0-1.1966782,0.9701004-2.1667786,2.1667786-2.1667786 h0.3574715v4.9727859c0,2.9916992,2.425251,5.416954,5.4169502,5.416954H48.6952744z"/><path fill="#35d175" d="M48.6952744,69.9733124v0.3574753c0,1.1917267-0.9750519,2.1667786-2.1667786,2.1667786h-8.5804329 c-1.1917267,0-2.1667786-0.9750519-2.1667786-2.1667786v-8.5804329c0-1.1966782,0.9701004-2.1667786,2.1667786-2.1667786 h0.3574715v4.9727898c0,2.9916992,2.425251,5.4169464,5.4169502,5.4169464H48.6952744z"/><path fill="#e5f5f9" d="M77.4283218,62.7849426v0.010807c0,0.8675919-0.7033234,1.5709114-1.5709152,1.5709114H56.5823708 c-0.8675919,0-1.5709152-0.7033195-1.5709152-1.5709114v-0.010807c0-0.8675919,0.7033234-1.5709152,1.5709152-1.5709152 h19.2750359C76.7249985,61.2140274,77.4283218,61.9173508,77.4283218,62.7849426z"/><path fill="#e5f5f9" d="M66.5093002,69.2852859v0.0108032c0,0.8675919-0.7033234,1.5709152-1.5709152,1.5709152h-8.3560143 c-0.8675919,0-1.5709152-0.7033234-1.5709152-1.5709152v-0.0108032c0-0.8675919,0.7033234-1.5709152,1.5709152-1.5709152 h8.3560143C65.8059769,67.7143707,66.5093002,68.4176941,66.5093002,69.2852859z"/><path fill="#e5f5f9" d="M66.4303665,83.522934v0.0108032c0,0.8675919-0.7033234,1.5709152-1.5709229,1.5709152h-8.2770729 c-0.8675919,0-1.5709152-0.7033234-1.5709152-1.5709152V83.522934c0-0.8675919,0.7033234-1.5709152,1.5709152-1.5709152 h8.2770729C65.7270432,81.9520187,66.4303665,82.6553421,66.4303665,83.522934z"/><path fill="#e5f5f9" d="M69.0088348,90.0232697v0.0108109c0,0.8675919-0.7033234,1.5709152-1.5709152,1.5709152H56.5823708 c-0.8675919,0-1.5709152-0.7033234-1.5709152-1.5709152v-0.0108109c0-0.8675919,0.7033234-1.5709152,1.5709152-1.5709152 h10.8555489C68.3055115,88.4523544,69.0088348,89.1556778,69.0088348,90.0232697z"/><g><path fill="#d3e6ed" d="M60.2984047,64.3644791H56.582386c-0.8667641,0-1.5709305-0.7042313-1.5709305-1.5709267v-0.0108452 c0-0.8666992,0.7041664-1.5709305,1.5709305-1.5709305h3.7160187c-0.8667641,0-1.5709267,0.7042313-1.5709267,1.5709305 v0.0108452C58.727478,63.6602478,59.4316406,64.3644791,60.2984047,64.3644791z"/><path fill="#d3e6ed" d="M60.2984047,70.8648224H56.582386c-0.8667641,0-1.5709305-0.7042313-1.5709305-1.5709305v-0.010849 c0-0.8666992,0.7041664-1.5709229,1.5709305-1.5709229h3.7160187c-0.8667641,0-1.5709267,0.7042236-1.5709267,1.5709229 v0.010849C58.727478,70.1605911,59.4316406,70.8648224,60.2984047,70.8648224z"/><g><path fill="#d3e6ed" d="M60.2984047,85.1005783H56.582386c-0.8667641,0-1.5709305-0.7042313-1.5709305-1.5709305v-0.0108414 c0-0.8666992,0.7041664-1.5709305,1.5709305-1.5709305h3.7160187c-0.8667641,0-1.5709267,0.7042313-1.5709267,1.5709305 v0.0108414C58.727478,84.396347,59.4316406,85.1005783,60.2984047,85.1005783z"/><path fill="#d3e6ed" d="M60.2984047,91.6009216H56.582386c-0.8667641,0-1.5709305-0.7042313-1.5709305-1.5709305v-0.0108414 c0-0.8666992,0.7041664-1.5709305,1.5709305-1.5709305h3.7160187c-0.8667641,0-1.5709267,0.7042313-1.5709267,1.5709305 v0.0108414C58.727478,90.8966904,59.4316406,91.6009216,60.2984047,91.6009216z"/></g></g><g><path fill="#24272b" d="M41.2147446,68.8626099c-0.2056732,0-0.4022713-0.081665-0.547451-0.2268448l-2.0476494-2.0476532 c-0.3024559-0.3024521-0.3024559-0.7924423,0-1.0948944c0.3024597-0.3024597,0.7924423-0.3024597,1.094902,0 l1.5001984,1.5001907l3.546833-3.5478401c0.3024597-0.3024597,0.7924423-0.3024597,1.094902,0 s0.3024597,0.7924385,0,1.0948982l-4.0942841,4.0952988C41.617012,68.7809448,41.420414,68.8626099,41.2147446,68.8626099z"/></g><g><path fill="#24272b" d="M41.2147446,89.6001968c-0.198616,0-0.3962212-0.0756149-0.547451-0.2268448l-2.0476494-2.0476456 c-0.3024559-0.3024597-0.3024559-0.7924423,0-1.094902c0.3024597-0.3024597,0.7924423-0.3024597,1.094902,0 l1.5001984,1.5001984l3.546833-3.5468369c0.3024597-0.3024597,0.7924423-0.3024597,1.094902,0 s0.3024597,0.7924423,0,1.094902l-4.0942841,4.0942841C41.6109657,89.5245819,41.4133568,89.6001968,41.2147446,89.6001968 z"/></g><g><path fill="#fff" d="M98.4084167,73.2722473l0.0005035,13.503891 c0.0000305,0.7883682-0.6388779,1.4273148-1.4272232,1.4273148c-0.788353,0-1.4273071-0.6389465-1.4273376-1.4273224 l-0.0005035-13.5038834c-0.0000305-0.7883759,0.6388779-1.4273148,1.4272232-1.4273148 C97.7694321,71.8449326,98.4083862,72.4838791,98.4084167,73.2722473z" opacity=".2"/><path fill="#fff" d="M98.4091034,91.6078339l0.0000458,1.1552277 c0.0000305,0.7883759-0.6388779,1.4273224-1.4272308,1.4273148c-0.7883453,0-1.4272995-0.6389465-1.42733-1.4273148 l-0.0000458-1.1552353c-0.0000305-0.7883682,0.6388779-1.4273148,1.4272308-1.4273148 C97.7701187,90.1805115,98.4090729,90.819458,98.4091034,91.6078339z" opacity=".2"/></g><g><path fill="#fff" d="M74.8320313,25.2319221l-7.1773758,0.000349 c-0.5771408,0.000021-1.044899-0.4677048-1.0448914-1.0448303c0-0.5771255,0.4677582-1.0448818,1.044899-1.0449028 l7.1773758-0.000351c0.5771408-0.0000191,1.044899,0.4677048,1.044899,1.0448303 C75.8769302,24.764143,75.4091721,25.2319012,74.8320313,25.2319221z" opacity=".2"/></g><g><path fill="#fc545d" d="M53.5252876,53.4058647l-1.7441406-2.0800781 c-0.2675781,0.0424805-0.5869141,0.0639648-0.9609375,0.0639648c-3.3525238,0-5.5514412-2.3173218-5.6171875-5.7451172 c0.0662689-3.4565201,2.2924538-5.7456055,5.6171875-5.7456055c3.4307289,0,5.5531158,2.4357224,5.6171875,5.7456055 c-0.0407333,2.3660889-1.1544876,4.41399-3.3125,5.3129883l1.4082031,1.5522461 c0.235321,0.2353249,0.2868843,0.6564445,0,0.9443359C54.259182,53.7271576,53.8080177,53.754303,53.5252876,53.4058647z M54.9813423,45.6446342c0-2.5509415-1.6062241-4.3852539-4.1611328-4.3852539 c-2.6117439,0-4.1601563,1.8857918-4.1601563,4.3852539c0,2.4909935,1.541954,4.3847656,4.1601563,4.3847656 C53.38237,50.0293999,54.9813423,48.1863976,54.9813423,45.6446342z"/><path fill="#fc545d" d="M53.4100533,53.5015678l-1.6904297-2.0151367 c-0.2568359,0.0356445-0.5595703,0.0532227-0.8994141,0.0532227c-3.3754539,0-5.6971626-2.3222618-5.7675781-5.8920898 c0.0703278-3.5852966,2.3984871-5.8984375,5.7675781-5.8984375c3.5205307,0,5.7002831,2.5102997,5.7675781,5.8925781 c-0.0407753,2.3169212-1.0945511,4.3950386-3.2119141,5.3696289l1.2685547,1.3979492 c0.2838745,0.2838783,0.3436432,0.8013535-0.0048828,1.1508789 C54.3032417,53.8954887,53.7480202,53.9185944,53.4100533,53.5015678z M51.8416939,51.1641655l1.7998047,2.1469727 c0.2167969,0.2661133,0.5585938,0.2612305,0.7861328,0.0366211c0.2220078-0.2230148,0.1795578-0.5522728-0.0009766-0.7319336 l-1.5556641-1.7148438l0.1962891-0.0820313c2.0946884-0.8717537,3.1806984-2.8629303,3.2197266-5.1767578 c-0.0614357-3.2224159-2.1273613-5.5932617-5.4667969-5.5932617c-3.2952576,0-5.4044228,2.2794571-5.4667969,5.5986328 c0.0624275,3.3043327,2.1661377,5.5922852,5.4667969,5.5922852c0.3623047,0,0.6777344-0.0209961,0.9375-0.0620117 L51.8416939,51.1641655z M50.8202095,50.1793022c-2.7367935,0-4.3105469-2.0000648-4.3105469-4.534668 c0-2.5519066,1.587677-4.5351563,4.3105469-4.5351563c2.6662521,0,4.3115234,1.9334335,4.3115234,4.5351563 C55.1317329,48.2532082,53.4796066,50.1793022,50.8202095,50.1793022z M50.8202095,41.4092827 c-2.5219078,0-4.0097656,1.8123398-4.0097656,4.2353516c0,2.4006462,1.4677658,4.2348633,4.0097656,4.2348633 c2.4657745,0,4.0107422-1.7592506,4.0107422-4.2348633C54.8309517,43.1793022,53.2951279,41.4092827,50.8202095,41.4092827z"/><path fill="#fc545d" d="M58.374897,48.2530327v-4.5449219c0-0.2026367,0.0712891-0.3735352,0.2158203-0.512207 c0.1435547-0.1386719,0.3173828-0.2080078,0.5195313-0.2080078c0.203125,0,0.3740234,0.0693359,0.5126953,0.2080078 s0.2080078,0.3095703,0.2080078,0.512207v4.3847656c0,1.3017578,0.5869141,1.9526367,1.7607422,1.9526367 c1.117836,0,1.9307289-0.6636505,2.6240196-1.5366211v-4.8007813c0-0.2026367,0.0722656-0.3735352,0.2158203-0.512207 c0.1445313-0.1386719,0.3173828-0.2080078,0.5205078-0.2080078c0.2021484,0,0.3730469,0.0693359,0.5117188,0.2080078 s0.2080078,0.3095703,0.2080078,0.512207v6.8652344c0,0.3999901-0.305275,0.7363281-0.7197266,0.7363281 c-0.4076462,0-0.7363281-0.3282166-0.7363281-0.7363281v-0.65625 c-1.0590897,1.1713867-2.0021172,1.4726563-2.9765587,1.4726563 C59.4450417,51.3897514,58.374897,49.9985428,58.374897,48.2530327z"/><path fill="#fc545d" d="M61.2391548,51.5396538c-1.8714561,0-3.0146484-1.451252-3.0146484-3.2866211v-4.5449219 c0-0.2451172,0.0888672-0.4536133,0.2626953-0.6206055c0.3427734-0.331543,0.9072266-0.331543,1.2421875,0.0024414 c0.1669922,0.1669922,0.2519531,0.375,0.2519531,0.6181641v4.3847656c0,1.2128906,0.5263672,1.8027344,1.6103516,1.8027344 c1.0467339,0,1.8136101-0.6199226,2.473629-1.4394531v-4.7480469c0-0.2436523,0.0888672-0.4526367,0.2617188-0.6201172 c0.3486328-0.3334961,0.9082031-0.331543,1.2431641,0.0019531c0.1669922,0.1669922,0.2519531,0.375,0.2519531,0.6181641 v6.8652344c0,1.1731148-1.7568359,1.1611977-1.7568359,0v-0.2832031 C63.1094818,51.2281837,62.2502136,51.5396538,61.2391548,51.5396538z M59.1102486,43.1377983 c-0.1640625,0-0.2998047,0.0541992-0.4150391,0.1660156c-0.1152344,0.1098633-0.1699219,0.2421875-0.1699219,0.4042969 v4.5449219c0,1.6380501,0.980629,2.9868164,2.7138672,2.9868164c0.946476,0,1.8466339-0.2970505,2.8652306-1.4233398 l0.2617188-0.2890625v1.0458984c0,0.7690926,1.1552734,0.7801399,1.1552734,0v-6.8652344 c0-0.1630859-0.0537109-0.2958984-0.1640625-0.40625c-0.2226563-0.222168-0.5888672-0.2197266-0.8222656,0.0024414 c-0.1132813,0.1098633-0.1689453,0.2421875-0.1689453,0.4038086v4.8530273l-0.0332031,0.0410156 c-0.7205544,0.9080849-1.5726013,1.5932617-2.7412071,1.5932617c-1.25,0-1.9111328-0.7270508-1.9111328-2.1025391v-4.3847656 c0-0.1630859-0.0537109-0.2958984-0.1640625-0.40625S59.2733345,43.1377983,59.1102486,43.1377983z"/><g><path fill="#fc545d" d="M68.3123932,41.1636772c-0.1601563-0.1601563-0.2392578-0.3525391-0.2392578-0.5761719v-0.0639648 c0-0.2241211,0.0791016-0.4165039,0.2392578-0.5761719c0.1601563-0.1601563,0.3525391-0.2402344,0.5761719-0.2402344 h0.0966797c0.2236328,0,0.4160156,0.0800781,0.5761719,0.2402344c0.1591797,0.159668,0.2392578,0.3520508,0.2392578,0.5761719 v0.0639648c0,0.2236328-0.0800781,0.4160156-0.2392578,0.5761719 c-0.1601563,0.159668-0.3525391,0.2397461-0.5761719,0.2397461h-0.0966797 C68.6649323,41.4034233,68.4725494,41.3233452,68.3123932,41.1636772z M68.4090729,51.1016655 c-0.1386719-0.1386719-0.2080078-0.3095703-0.2080078-0.512207v-6.8652344 c0-0.2026367,0.0693359-0.3764648,0.2080078-0.5205078s0.3085938-0.2158203,0.5117188-0.2158203 c0.2128906,0,0.3896484,0.0693359,0.5283203,0.2080078s0.2080078,0.3149414,0.2080078,0.5283203v6.8652344 c0,0.2026367-0.0722656,0.3735352-0.2158203,0.512207c-0.1445313,0.1386719-0.3183594,0.2080078-0.5205078,0.2080078 C68.7176666,51.3096733,68.5477448,51.2403374,68.4090729,51.1016655z"/><path fill="#fc545d" d="M68.9207916,51.4595757c-0.2431641,0-0.4501953-0.0844727-0.6181641-0.2519531 c-0.1669922-0.1669922-0.2519531-0.375-0.2519531-0.6181641v-6.8652344c0-0.2421875,0.0849609-0.4521484,0.25-0.6245117 c0.1679688-0.1738281,0.3759766-0.2617188,0.6201172-0.2617188c0.2539063,0,0.4667969,0.0844727,0.6347656,0.2519531 c0.1669922,0.1669922,0.2519531,0.3803711,0.2519531,0.6342773v6.8652344 c0,0.2436523-0.0888672,0.4526367-0.2617188,0.6201172C69.3719635,51.3755913,69.1620026,51.4595757,68.9207916,51.4595757z M68.9207916,43.1377983c-0.1611328,0-0.2939453,0.0556641-0.4033203,0.1699219 c-0.1123047,0.1162109-0.1660156,0.2524414-0.1660156,0.4165039v6.8652344c0,0.1630859,0.0537109,0.2958984,0.1640625,0.40625 c0.2216797,0.222168,0.5888672,0.2197266,0.8222656-0.0024414c0.1132813-0.1098633,0.1689453-0.2421875,0.1689453-0.4038086 v-6.8652344c0-0.1738281-0.0537109-0.3120117-0.1640625-0.4223633S69.0946198,43.1377983,68.9207916,43.1377983z M68.9852448,41.5533257h-0.0966797c-0.2636719,0-0.4931641-0.0952148-0.6816406-0.2832031l-0.0009766-0.0004883 c-0.1875-0.1879883-0.2832031-0.4174805-0.2832031-0.6821289v-0.0639648c0-0.2651367,0.0957031-0.4951172,0.2841797-0.6826172 c0.1875-0.1879883,0.4179688-0.2836914,0.6816406-0.2836914h0.0966797c0.2636719,0,0.4941406,0.0957031,0.6826172,0.2841797 c0.1875,0.1884766,0.2832031,0.4179688,0.2832031,0.6821289v0.0639648c0,0.2636719-0.0957031,0.4931641-0.2832031,0.6821289 C69.4784088,41.4581108,69.2489166,41.5533257,68.9852448,41.5533257z M68.4178619,41.0577202 c0.1328125,0.1318359,0.2861328,0.1958008,0.4707031,0.1958008h0.0966797 c0.1845703,0,0.3378906-0.0639648,0.4707031-0.1962891c0.1308594-0.1318359,0.1943359-0.2856445,0.1943359-0.4697266 v-0.0639648c0-0.1845703-0.0634766-0.3383789-0.1953125-0.4702148s-0.2851563-0.1962891-0.4697266-0.1962891h-0.0966797 c-0.1845703,0-0.3378906,0.0644531-0.4697266,0.1962891c-0.1318359,0.1313477-0.1953125,0.2851563-0.1953125,0.4702148 v0.0639648C68.223526,40.7725639,68.2870026,40.9258842,68.4178619,41.0577202z"/></g><g><path fill="#fc545d" d="M71.848526,51.0054741c-0.1914063-0.1494141-0.2880859-0.3574219-0.2880859-0.6240234 c0-0.2451172,0.0859375-0.4643555,0.2568359-0.65625l4.6083984-5.296875h-4.0488281 c-0.1914063,0-0.3515625-0.0639648-0.4794922-0.1923828c-0.1279297-0.1279297-0.1923828-0.2880859-0.1923828-0.4799805 s0.0644531-0.3544922,0.1923828-0.4882813c0.1279297-0.1328125,0.2880859-0.199707,0.4794922-0.199707h4.8496094 c0.2773438,0,0.5009766,0.0854492,0.671875,0.2558594c0.1708984,0.1708984,0.2558594,0.3896484,0.2558594,0.65625 c0,0.2456055-0.0742188,0.4589844-0.2236328,0.6401367l-4.4814453,5.2490234h4.1132813 c0.1914063,0,0.3544922,0.0668945,0.4882813,0.2001953c0.1328125,0.1333008,0.1992188,0.2958984,0.1992188,0.487793 c0,0.1923828-0.0664063,0.3525391-0.1992188,0.4804688c-0.1337891,0.1279297-0.296875,0.1918945-0.4882813,0.1918945 h-4.9931641C72.2811432,51.2295952,72.0409088,51.1548882,71.848526,51.0054741z"/><path fill="#fc545d" d="M77.5623932,51.3794975h-4.9931641c-0.3212891,0-0.5947266-0.0859375-0.8125-0.2553711 l-0.0009766-0.0004883c-0.2285156-0.1791992-0.3457031-0.4287109-0.3457031-0.7421875 c0-0.2822266,0.0996094-0.5361328,0.2949219-0.7558594l4.3916016-5.0473633h-3.7197266 c-0.2324219,0-0.4296875-0.0795898-0.5859375-0.2363281s-0.2363281-0.3540039-0.2363281-0.5859375 c0-0.2304688,0.0791016-0.4296875,0.234375-0.5917969c0.1572266-0.1635742,0.3554688-0.2460938,0.5878906-0.2460938h4.8496094 c0.3164063,0,0.578125,0.1005859,0.7773438,0.2993164c0.1992188,0.1992188,0.3007813,0.4555664,0.3007813,0.7626953 c0,0.2807617-0.0869141,0.5283203-0.2587891,0.7353516l-4.2714844,5.0039063h3.7880859 c0.2314453,0,0.4316406,0.0820313,0.59375,0.2436523c0.1621094,0.1625977,0.2441406,0.3623047,0.2441406,0.5942383 c0,0.2338867-0.0830078,0.4316406-0.2451172,0.5883789C77.9920807,51.3008842,77.7928619,51.3794975,77.5623932,51.3794975z M71.9412994,50.88731c0.1660156,0.1293945,0.3720703,0.1923828,0.6279297,0.1923828h4.9931641 c0.1533203,0,0.2792969-0.0493164,0.3847656-0.1503906c0.1025391-0.0991211,0.1523438-0.2207031,0.1523438-0.3720703 c0-0.1518555-0.0507813-0.2768555-0.1552734-0.3818359c-0.1054688-0.1049805-0.2304688-0.15625-0.3818359-0.15625h-4.4384766 l4.6923828-5.4960938c0.1259766-0.152832,0.1875-0.3310547,0.1875-0.5429688 c0-0.2275391-0.0693359-0.4077148-0.2119141-0.550293s-0.328125-0.2119141-0.5654297-0.2119141h-4.8496094 c-0.1503906,0-0.2714844,0.050293-0.3710938,0.1538086c-0.1015625,0.105957-0.1503906,0.2314453-0.1503906,0.3842773 c0,0.1518555,0.0478516,0.2739258,0.1484375,0.3740234c0.0996094,0.0996094,0.2216797,0.1484375,0.3730469,0.1484375 h4.3779297l-4.8242188,5.5454102c-0.1484375,0.1665039-0.2197266,0.3486328-0.2197266,0.5576172 C71.7108307,50.6006889,71.786026,50.7662163,71.9412994,50.88731L71.9412994,50.88731z"/></g></g><g><path fill="#ff4d78" d="M68.9794769,78.8792648c0.020195-0.0417557,0.0404053-0.0834351,0.0678177-0.1196518 c-0.0202026,0.0416718-0.0403671,0.0833893-0.0605621,0.1251373L68.9794769,78.8792648z"/><rect width="2.435" height="11.732" x="89.124" y="54.156" fill="#fff" transform="rotate(-52.877 90.342 60.022)"/><path fill="#f14448" d="M95.7495499,62.5920143l2.3750687-3.1377754 c1.9547119-2.5824432,1.4458084-6.2605019-1.1365967-8.2151833l-0.0000381-0.0000305 c-2.5823975-1.9546814-6.2604218-1.4458199-8.2151413,1.1366234l-2.375061,3.1377754L95.7495499,62.5920143z"/><path fill="#e82832" d="M97.4275208,60.3678169l-1.6773758,2.2277298l-9.3480072-7.0851364l2.3675385-3.1364594 c1.1532211-1.520134,2.909256-2.3238182,4.6827774-2.3238182c0.1746826,0,0.3581696,0.0086403,0.5329132,0.0261307 c-0.6290588,0.3669662-1.1968918,0.8648987-1.6599503,1.48526l-1.403595,1.8576431 c-0.5373459,0.711174-0.3969193,1.7232208,0.3137665,2.261219L97.4275208,60.3678169z"/><path fill="#b09ffb" d="M94.2842178,64.5331573l-15.090004,20.0491486 c-0.3290634,0.4347382-0.6961365,0.8293533-1.092186,1.2020493l-0.0145035-0.0109863 c0.0346985-0.0307693,0.0693741-0.0615005,0.1040421-0.0922318l-9.1442719-6.921524 c0.2309265-0.4406357,0.4908905-0.8593597,0.7870483-1.250618l15.0954971-20.0564079L94.2842178,64.5331573z"/><path fill="#9d92ef" d="M80.2143326,83.2345886l-1.0201187,1.3477173 c-0.3290634,0.4347382-0.6961365,0.8293533-1.092186,1.2020493l-0.0145035-0.0109863 c0.0346985-0.0307693,0.0693741-0.0615005,0.1040421-0.0922318l-9.1442719-6.921524 c0.2309265-0.4406357,0.4908905-0.8593597,0.7870483-1.250618l15.0954971-20.0564079l2.7026901,2.0457344 c0,0-5.2120132,7.032074-9.78582,13.1364899c-2.3304367,3.1103134-1.7063599,7.5160751,1.3925171,9.8616943 L80.2143326,83.2345886z"/><path fill="#f3c291" d="M69.0507507,78.7622223c-1.0208969,1.921936-0.9175262,2.9602127-1.9888382,7.5440292 l-0.8092651,3.8095932c-0.2225952,1.0167999,0.849823,1.8285446,1.7679901,1.3382416l3.4467697-1.8132019 c4.1291275-2.2745743,5.1503754-2.4509506,6.7271652-3.9574738L69.0507507,78.7622223z"/><path fill="#ffefb4" d="M69.0507507,78.7622223c-1.0208969,1.921936-0.9175262,2.9602127-1.9888382,7.5440292 l-0.8092651,3.8095932c-0.2225952,1.0167999,0.849823,1.8285446,1.7679901,1.3382416l3.4467697-1.8132019 c4.1291275-2.2745743,5.1503754-2.4509506,6.7271652-3.9574738L69.0507507,78.7622223z"/><path fill="#f9e49d" d="M68.8075943,91.0467834l-0.7869568,0.4073029 c-0.9181671,0.490303-1.9905853-0.3214417-1.7679901-1.3382416l0.8092651-3.8095932 c1.0790405-4.6010208,0.9341507-5.5153732,1.9853821-7.5466385l2.3693695,1.7934265 c-0.4013596,0.7561417-0.7175293,1.5653534-0.8921661,2.4133835l-1.0931778,5.1332932L68.8075943,91.0467834z"/><path fill="#24272b" d="M71.4674072,89.6408844l-3.4467697,1.8132019 c-0.9181671,0.490303-1.9905853-0.3214417-1.7679901-1.3382416l0.8092651-3.8095932 c1.0021973-0.1645889,2.0589905,0.0654602,2.9212494,0.718132 C70.852623,87.6825027,71.3609619,88.6371384,71.4674072,89.6408844z"/><path fill="#fff" d="M81.396698,74.6496124l4.265686-5.5735855 c0.3913651-0.5196915,1.1290436-0.6231766,1.6482697-0.2321548 c0.5192337,0.3910217,0.6235275,1.1285858,0.2321548,1.6482697l-4.2656784,5.5735855 c-0.3913727,0.5196915-1.1290436,0.6231766-1.6482773,0.2321548 C81.1096268,75.9068604,81.0053329,75.1692963,81.396698,74.6496124z" opacity=".4"/><path fill="#fff" d="M88.2194138,65.6806107l0.2302551-0.3057556 c0.3913727-0.5196915,1.1290436-0.6231766,1.6482773-0.2321548 c0.5192261,0.3910217,0.6235199,1.1285858,0.2321548,1.6482697l-0.2302628,0.3057556 c-0.3913651,0.5196838-1.1290359,0.6231766-1.6482697,0.2321548 C87.9323425,66.9378586,87.8280487,66.2002945,88.2194138,65.6806107z" opacity=".4"/></g><g><path fill="#24272b" d="M100.9253387,68.5068741c-2.3811188,0.0148773-4.3164825,1.9725876-4.3119965,4.3617783 c0.0032425,1.7276611,1.0143661,3.2078171,2.4738159,3.8913498l0.0058136,3.0973663 c0.6126251-0.0505142,1.225296-0.077713,1.8457718-0.0815887c0.6205292-0.0038834,1.233284,0.0156631,1.8460846,0.0585251 l-0.0058212-3.0973663c1.4568634-0.6939621,2.4701004-2.1945572,2.4668579-3.9222183 C105.2413788,70.4255219,103.2986984,68.4920502,100.9253387,68.5068741z M100.9377213,75.0985184 c-1.2409515,0.0077515-2.2511368-0.9976425-2.2534714-2.2428055 c-0.0023422-1.2452087,1.0040436-2.2632065,2.2449951-2.2709579 c1.2332382-0.0077057,2.2434158,0.9976959,2.2457581,2.2429047 C103.1773453,74.0728149,102.1709595,75.0908127,100.9377213,75.0985184z"/><path fill="#13181e" d="M103.206871,69.1541138c0.6995163,0.7661285,1.1202316,1.7752151,1.1223297,2.895874 c0.0029755,1.5836868-0.8481674,2.976532-2.1121979,3.7321854c-0.2277679,0.1361618-0.3542557,0.3951035-0.3537598,0.6606216 l0.0014191-0.1419296c0.0018921,1.0072327-0.820137,1.8049774-1.8239594,1.8104935 c-0.0062103,0.0000305-0.012413,0.0000687-0.0186157,0.0001068 c-0.3102188,0.0019379-0.6204605,0.0116653-0.9306641,0.0214005l0.0015488,1.7245026 c0.6126251-0.0505142,1.225296-0.077713,1.8457718-0.0815887c0.6205292-0.0038834,1.233284,0.0156631,1.8460846,0.0585251 l-0.0058212-3.0973663c1.4568634-0.6939621,2.4701004-2.1945572,2.4668579-3.9222183 C105.2429581,71.266037,104.4260178,69.9092102,103.206871,69.1541138z"/><circle cx="100.925" cy="96.886" r="17.791" fill="#fc545d"/><path fill="#f14448" d="M114.9710464,107.8057098c-3.2529907,4.1849594-8.3359909,6.8704147-14.0461044,6.8704147 c-9.8272247,0-17.7905197-7.963295-17.7905197-17.7905197c0-5.7098999,2.6854553-10.7929077,6.8704147-14.0461044 c-2.3466721,3.0159607-3.7444153,6.8027802-3.7444153,10.920105c0,9.8270187,7.963295,17.7905197,17.7905197,17.7905197 C108.1680603,111.5501251,111.9550858,110.1521759,114.9710464,107.8057098z"/><circle cx="100.925" cy="96.886" r="13.085" fill="#fff"/><path fill="#e5f5f9" d="M110.8455048,88.3526459c-2.2838211-1.9508133-5.2495346-3.1244736-8.4932709-3.1244736 c-7.2320938,0-13.0849152,5.8524323-13.0849152,13.0849152c0,3.2435455,1.1740494,6.209259,3.124855,8.4932709 c-2.7837143-2.4028931-4.5521469-5.9556274-4.5521469-9.9207535c0-7.22435,5.8605652-13.0849152,13.0849152-13.0849152 C104.8900681,83.8006897,108.4428101,85.5691147,110.8455048,88.3526459z"/><path fill="#24272b" d="M95.3426666,88.5167084l-0.5400391-0.9350586 c-0.1796875-0.3110352-0.0732422-0.7084961,0.2373047-0.8881836s0.7089844-0.0732422,0.8876953,0.237793l0.5400391,0.9350586 c0.1796875,0.3110352,0.0732422,0.7084961-0.2373047,0.8881836 C95.9179382,88.9345169,95.5205307,88.8254395,95.3426666,88.5167084z"/><path fill="#24272b" d="M105.9217682,106.8399506l-0.5400391-0.9350586 c-0.1796875-0.3110352-0.0732422-0.7084961,0.2373047-0.8881836c0.3105469-0.1791992,0.7089844-0.0727539,0.8876953,0.237793 l0.5400391,0.9350586c0.1796875,0.3110352,0.0732422,0.7084961-0.2373047,0.8881836 C106.4970398,107.2577591,106.0996323,107.1486816,105.9217682,106.8399506z"/><path fill="#24272b" d="M91.9051666,92.4288177l-0.9345703-0.5395508 c-0.3105469-0.1796875-0.4169922-0.5771484-0.2373047-0.8881836c0.1787109-0.3105469,0.5771484-0.4174805,0.8876953-0.237793 l0.9345703,0.5395508c0.3105469,0.1796875,0.4169922,0.5771484,0.2373047,0.8881836 C92.6148834,92.4999542,92.2173004,92.6086655,91.9051666,92.4288177z"/><path fill="#24272b" d="M110.2293854,103.0079193l-0.9355469-0.5395508 c-0.3105469-0.1791992-0.4169922-0.5766602-0.2382813-0.8876953c0.1796875-0.309082,0.5751953-0.4189453,0.8886719-0.2382813 l0.9355469,0.5395508c0.3105469,0.1791992,0.4169922,0.5766602,0.2382813,0.8876953 C110.9352951,103.0843201,110.5367889,103.1850433,110.2293854,103.0079193z"/><path fill="#24272b" d="M90.8856354,97.5357513h-1.0791016c-0.359375,0-0.6503906-0.2910156-0.6503906-0.6499023 s0.2910156-0.6499023,0.6503906-0.6499023h1.0791016c0.359375,0,0.6503906,0.2910156,0.6503906,0.6499023 S91.2450104,97.5357513,90.8856354,97.5357513z"/><path fill="#24272b" d="M112.0438385,97.5357513h-1.0800781c-0.359375,0-0.6503906-0.2910156-0.6503906-0.6499023 s0.2910156-0.6499023,0.6503906-0.6499023h1.0800781c0.359375,0,0.6503906,0.2910156,0.6503906,0.6499023 S112.4032135,97.5357513,112.0438385,97.5357513z"/><g><path fill="#24272b" d="M90.7332916,102.7701263c-0.1796875-0.3110352-0.0732422-0.7084961,0.2373047-0.8881836 l0.9345703-0.5395508c0.3105469-0.1791992,0.7080078-0.0727539,0.8876953,0.237793 c0.1796875,0.3110352,0.0732422,0.7084961-0.2373047,0.8881836l-0.9345703,0.5395508 C91.3085632,103.1879349,90.9111557,103.0788574,90.7332916,102.7701263z"/><path fill="#24272b" d="M109.0555573,92.1905365c-0.1787109-0.3110352-0.0722656-0.7084961,0.2382813-0.8876953 l0.9355469-0.5395508c0.3154297-0.1796875,0.7099609-0.0712891,0.8886719,0.2382813 c0.1787109,0.3110352,0.0722656,0.7084961-0.2382813,0.8876953l-0.9355469,0.5395508 C109.6362686,92.6062622,109.237999,92.5046539,109.0555573,92.1905365z"/></g><g><path fill="#24272b" d="M95.0399323,107.0777435c-0.3105469-0.1796875-0.4169922-0.5771484-0.2373047-0.8881836 l0.5400391-0.9350586c0.1787109-0.3105469,0.5771484-0.4169922,0.8876953-0.237793 c0.3105469,0.1796875,0.4169922,0.5771484,0.2373047,0.8881836l-0.5400391,0.9350586 C95.749649,107.14888,95.352066,107.2575912,95.0399323,107.0777435z"/><path fill="#24272b" d="M105.6190338,88.7545013c-0.3105469-0.1796875-0.4169922-0.5771484-0.2373047-0.8881836 l0.5400391-0.9350586c0.1787109-0.3110352,0.5761719-0.4174805,0.8876953-0.237793 c0.3105469,0.1796875,0.4169922,0.5771484,0.2373047,0.8881836l-0.5400391,0.9350586 C106.3287506,88.8256378,105.9311676,88.9343491,105.6190338,88.7545013z"/></g><g><path fill="#24272b" d="M100.9246979,108.6544037c-0.359375,0-0.6503906-0.2910156-0.6503906-0.6499023v-1.0795898 c0-0.3588867,0.2910156-0.6499023,0.6503906-0.6499023s0.6503906,0.2910156,0.6503906,0.6499023v1.0795898 C101.5750885,108.3633881,101.2840729,108.6544037,100.9246979,108.6544037z"/><path fill="#24272b" d="M100.9246979,87.4962006c-0.359375,0-0.6503906-0.2910156-0.6503906-0.6499023v-1.0795898 c0-0.3588867,0.2910156-0.6499023,0.6503906-0.6499023s0.6503906,0.2910156,0.6503906,0.6499023v1.0795898 C101.5750885,87.2051849,101.2840729,87.4962006,100.9246979,87.4962006z"/></g><g opacity=".3"><path fill="#fff" d="M114.4862442,89.6457977c-1.8407669-3.4407959-4.8803177-6.0327606-8.5593719-7.2977219 c-0.2879028-0.0984497-0.4409561-0.4120026-0.3416824-0.6990814 c0.0984497-0.2879028,0.4144897-0.4417877,0.6990814-0.3416824c3.9429703,1.3551407,7.2009277,4.132431,9.1732407,7.8189316 c0.1431198,0.2680511,0.0421906,0.6022797-0.2258606,0.7454071 C114.9540787,90.0187683,114.6259232,89.9065247,114.4862442,89.6457977z"/><path fill="#fff" d="M104.3756638,81.9054642c-0.2035217-0.0463333-0.4070358-0.0885239-0.6122131-0.1274109 c-0.2994843-0.0554276-0.4963837-0.3433304-0.4401321-0.6419907 c0.0554352-0.2986603,0.3532639-0.4963913,0.6419983-0.4401321c0.2200623,0.0405426,0.4384766,0.0860443,0.6552277,0.1356812 c0.2970047,0.0678406,0.4823227,0.3631897,0.4144821,0.6593704 C104.969101,81.7779236,104.6855316,81.9736328,104.3756638,81.9054642z"/></g><g><path fill="#43a1ff" d="M103.4309082,97.1002121c0,1.3797913-1.1182404,2.5057755-2.5059662,2.5057755 s-2.5059662-1.1259842-2.5059662-2.5057755c0-1.0150452,1.3323593-5.4397812,2.0541-7.7631836 c0.1347504-0.4441147,0.7689819-0.4441147,0.9037323,0C102.0985489,91.6604309,103.4309082,96.0851669,103.4309082,97.1002121 z"/><path fill="#fff" d="M102.0350494,97.2192764c0,0.6106186-0.4994888,1.1101074-1.1101074,1.1101074 c-0.610611,0-1.1101074-0.4994888-1.1101074-1.1101074c0-0.610611,0.4994965-1.102356,1.1101074-1.102356 C101.5355606,96.1169205,102.0350494,96.6086655,102.0350494,97.2192764z"/></g></g></g></svg>