<svg xmlns="http://www.w3.org/2000/svg"  viewBox="0 0 58 58" width="188px" height="188px"><circle cx="29" cy="29" r="29" fill="#ebba16"/><path fill="#afb6bb" d="M36.862,24.741L24.741,36.862c-0.995,0.995-2.608,0.995-3.603,0l0,0 c-0.995-0.995-0.995-2.608,0-3.603l12.121-12.121c0.995-0.995,2.608-0.995,3.603,0l0,0C37.857,22.133,37.857,23.746,36.862,24.741z"/><path fill="#e7eced" d="M45.707,13.683l-1.39-1.39c-3.058-3.058-8.061-3.058-11.119,0l-3.91,3.91 c-2.679,2.679-3.01,6.851-0.995,9.9l2.902-2.902c-0.175-0.451-0.27-0.937-0.27-1.438c0-1.056,0.406-2.044,1.142-2.78l3.91-3.911 c0.736-0.736,1.724-1.141,2.78-1.141s2.043,0.406,2.78,1.141l1.39,1.39c1.532,1.532,1.532,4.026,0,5.559l-3.911,3.911 c-0.736,0.736-1.724,1.141-2.78,1.141c-0.502,0-0.987-0.094-1.438-0.27l-2.902,2.902c3.049,2.015,7.221,1.684,9.9-0.995l3.91-3.91 C48.764,21.744,48.764,16.741,45.707,13.683z"/><path fill="#e7eced" d="M26.807,34.797c0.554,1.412,0.265,3.081-0.874,4.22l-3.911,3.911 c-0.736,0.736-1.724,1.141-2.78,1.141c-1.056,0-2.043-0.406-2.78-1.141l-1.39-1.39c-0.736-0.736-1.142-1.724-1.142-2.78 c0-1.056,0.406-2.044,1.142-2.78l3.91-3.911c0.736-0.736,1.724-1.141,2.78-1.141c0.502,0,0.987,0.094,1.438,0.27l2.902-2.902 c-3.049-2.015-7.221-1.684-9.9,0.995l-3.91,3.91c-3.058,3.058-3.058,8.061,0,11.119l1.39,1.39c3.058,3.058,8.061,3.058,11.119,0 l3.91-3.91c2.679-2.679,3.01-6.851,0.995-9.9L26.807,34.797z"/></svg>