<svg xmlns="http://www.w3.org/2000/svg"  viewBox="0 0 135 135" width="200px" height="200px"><g id="_x38_8"><path fill="#fc545d" d="M131.5068054,67.4930191C131.5068054,102.8446884,102.8515015,131.5,67.5,131.5 s-64.006813-28.6553116-64.006813-64.0069809C3.4931879,32.1553116,32.1485023,3.5,67.5,3.5 S131.5068054,32.1553116,131.5068054,67.4930191z"/><path fill="#ffc27c" d="M7.9318848,90.9156494C17.2739868,114.6833496,40.4125977,131.5,67.496582,131.5 c27.0878906,0,50.227417-16.8167725,59.5715332-40.5843506H7.9318848z"/><path fill="#f7b26d" d="M33.2426758,104.8756714v16.6900024c-1.8800049-1.1900024-3.6799927-2.4700317-5.4199829-3.8500366 v-12.8399658c0-1.5,1.2099609-2.710022,2.7099609-2.710022 C32.0391922,102.1656494,33.2426758,103.3694763,33.2426758,104.8756714z"/><path fill="#f7b26d" d="M104.7626953,111.7156372v7.8099976c-1.7399902,1.2600098-3.5500488,2.4200439-5.4200439,3.4899902 v-11.2999878c0-1.5,1.210083-2.7099609,2.710083-2.7099609 C103.5590744,109.0056763,104.7626953,110.2094955,104.7626953,111.7156372z"/><path fill="#f7b26d" d="M89.522644,116.4156647v11.4799805c-1.7700195,0.6300049-3.5799561,1.1799927-5.4199219,1.6300049 v-13.1099854c0-1.5,1.2099609-2.710022,2.7099609-2.710022C88.3192825,113.7056427,89.522644,114.9094772,89.522644,116.4156647 z"/><path fill="#f7b26d" d="M44.5102539,90.9156494v16.6900024c0,1.5-1.210083,2.710022-2.710083,2.710022 c-1.5130501,0-2.710083-1.2377472-2.710083-2.710022V90.9156494H44.5102539z"/><path fill="#f7b26d" d="M23.6977539,90.9156494v4.6900024c0,1.5-1.210083,2.710022-2.710083,2.710022 c-1.5130482,0-2.710083-1.2377472-2.710083-2.710022v-4.6900024H23.6977539z"/><path fill="#f7b26d" d="M119.4125977,90.9156494v13.9899902c-1.6499023,2.3099976-3.4699707,4.5-5.4199219,6.5599976V90.9156494 H119.4125977z"/><path fill="#f7b26d" d="M56.9526367,106.1656494v24.460022c-1.8399658-0.3000488-3.6499023-0.6799927-5.4199219-1.1400146 l-0.0100098-23.3200073c0-1.5,1.2099609-2.710022,2.7099609-2.710022 C55.7644501,103.4556274,56.9526367,104.7250824,56.9526367,106.1656494z"/><path fill="#f7b26d" d="M95.1625977,90.9156494v11.1099854c0,1.4899902-1.2199707,2.710022-2.7099609,2.710022 c-1.5320587,0-2.7099609-1.2491302-2.7099609-2.710022V90.9156494H95.1625977z"/><path fill="#f7b26d" d="M74.2827148,90.9156494v40.2199707c-1.7800293,0.1900024-3.5900879,0.3100586-5.4200439,0.3400269 V90.9156494H74.2827148z"/><g><path fill="#ffc27c" d="M47.5526352,84.0979156v6.8119965h-7.9519119c-1.8771591,0-3.4059944-1.5154114-3.4059944-3.4059982 c0-1.9219589,1.5746765-3.4059982,3.4059944-3.4059982H47.5526352z"/><path fill="#1273ff" d="M67.3305893,71.8701324l-6.4155045,14.7074051 c-1.1772003,2.6361237-3.8005943,4.3381119-6.6926689,4.3381119H42.9612198v-7.434906h7.4764366 c0.9999542,0,1.9200096-0.5463181,2.3986282-1.4242935l6.3173218-13.9357529 c0.7549667-1.5868607,2.3417511-2.5721588,4.056469-2.5721588c0.1919823,0,0.3839645,0,0.5757904,0.0255432 c1.420578,0.1791687,2.6490173,1.010994,3.3528976,2.2522354 C67.8426437,69.080452,67.9065399,70.5520325,67.3305893,71.8701324z"/><path fill="#43a1ff" d="M86.9608002,90.9156494v-23.552536c0-8.8059616-7.1555252-15.961483-15.9615631-15.961483 c-8.7926064,0-15.9612503,7.1555214-15.9612503,15.961483v23.552536H86.9608002z"/><rect width="31.923" height="6.162" x="55.038" y="84.754" fill="#1273ff"/><path fill="#1273ff" d="M78.9334717,67.3650665v23.5505829h8.0235825V67.3650665 c0-8.8041649-7.1534958-15.9575005-15.9578171-15.9575005c-1.3818359,0-2.7255554,0.1791725-4.0052261,0.5118217 C73.8656998,53.7109642,78.9334717,59.95578,78.9334717,67.3650665z"/><path fill="#fff" d="M74.8936691,56.0954056l-1.7129898,4.5653725 c-0.3410034,0.9088249-1.4725876,1.5514297-2.2297516,1.2662354l-3.9526749-1.4888153 c-0.2381439-0.0896988-0.5315704-0.0898209-0.8370132-0.0003471l-5.0903931,1.4911194 c-0.9706573,0.2843361-1.6191826-0.3582191-1.2783508-1.2665825l1.7135963-4.5669823 c1.3830833-3.6861191,5.5007668-6.6841049,9.2017632-6.6841049c1.850441,0,3.2420883,0.7448082,4.003624,1.9609299 C75.4671936,52.5789757,75.586998,54.2476006,74.8936691,56.0954056z"/><path fill="#ffc27c" d="M73.4563828,49.4113007v3.5830727c0,2.7000923-2.1881943,4.8883629-4.888443,4.8883629 c-1.3437195,0-2.5721588-0.550251-3.4550629-1.4332275c-0.8828964-0.8829803-1.4332275-2.0986862-1.4332275-3.4551353 V51.010891c1.049263,0.2686844,2.1499252,0.396698,3.2886963,0.3838882 C69.3614883,51.3564301,71.5752945,50.6270065,73.4563828,49.4113007z"/><path fill="#f2af6b" d="M73.4563828,49.4113007v3.5830727c0,1.5867805-0.7551193,2.9816628-1.9195099,3.877449 c0.3967743-0.6910744,0.614212-1.5100861,0.614212-2.3674431v-0.0000038 c0-1.5436249-1.4962234-2.6470718-2.9664764-2.1768265c-1.1128235,0.3559227-2.2935791,0.55756-3.521553,0.5772362 c-0.6782684,0.0128098-1.3435669-0.0383492-1.9834061-0.1279373V51.010891 c1.049263,0.2686844,2.1499252,0.396698,3.2886963,0.3838882 C69.3614883,51.3564301,71.5752945,50.6270065,73.4563828,49.4113007z"/><path d="M79.7000351,24.3120632H58.5452614c-3.0581284,0-5.7293243-1.6801968-7.1192818-4.1822948v14.0335388h28.2740555 V24.3120632z"/><path fill="#ffc27c" d="M55.5964127,29.6030903c0.0013695,0,0.0025291,0.0004215,0.0038986,0.0004215v9.3941307 c-0.0013695,0-0.0025291,0.0004196-0.0038986,0.0004196c-2.5905266,0-4.6974335-2.1069069-4.6974335-4.6974335 C50.8989792,31.7101059,53.0058861,29.6030903,55.5964127,29.6030903z"/><path fill="#f2af6b" d="M53.626667,38.5507813c0.6010971,0.2798538,1.2640533,0.4473076,1.9698143,0.4473076 c0.0012474,0,0.0024986-0.0004654,0.003746-0.0004654V29.603529c-0.0012474,0-0.0024986-0.0004692-0.003746-0.0004692 c-0.705761,0-1.3687172,0.1674576-1.9698143,0.4473076"/><path d="M84.1168594,15.7541103v18.5464649h-5.0076447V15.7541103c0-2.7438803-1.2293854-4.9800339-3.9732666-4.9800339 h4.0010223C81.892952,10.7740765,84.1168594,13.0102301,84.1168594,15.7541103z"/><path fill="#ffc27c" d="M79.4149628,33.3776703v4.9196091c0,6.9865227-5.463562,12.9940376-12.4501648,13.1027832 c-7.0709915,0.1088181-12.8488388-5.596508-12.8488388-12.6434517V23.3450794 c1.1482506,0.6163998,2.465889,0.9669838,3.8558311,0.9669838h14.1422844 c0.3626862,2.3207741,2.2363052,4.1338959,4.5691071,4.4602814v3.4932995 c0,0.8823586,0.7132645,1.5954819,1.5956268,1.5954819C78.7258911,33.8611259,79.1248703,33.6798553,79.4149628,33.3776703z"/><path fill="#f2af6b" d="M79.387085,33.4073296v4.9005966c0,7.0007286-5.4607773,12.9516029-12.3914261,13.0913277 c-1.1203613,0-2.1697845-0.070076-3.1508408-0.4200287c5.5308456-1.2600784,9.6618881-6.300396,9.6618881-12.2512741 V27.1770077c0.8392029,0.8400536,1.9604111,1.3998032,3.1499863,1.6100311v3.5003643 c0,0.8400536,0.7699814,1.5399551,1.6100311,1.5399551C78.7572556,33.8273582,79.1076355,33.6876335,79.387085,33.4073296z"/><path fill="#f2af6b" d="M79.4212418,29.6030903c-0.0013657,0-0.0025253,0.0004215-0.0038986,0.0004215v9.3941307 c0.0013733,0,0.002533,0.0004196,0.0038986,0.0004196c2.5905228,0,4.6974335-2.1069069,4.6974335-4.6974335 C84.1186752,31.7101059,82.0117645,29.6030903,79.4212418,29.6030903z"/><path d="M67.0260925,32.538765v1.859726c0,1.2169647,0.9865494,2.2035103,2.2035141,2.2035103l0,0 c1.2169647,0,2.2035141-0.9865456,2.2035141-2.2035103v-1.859726c0-1.2169647-0.9865494-2.2035103-2.2035141-2.2035103l0,0 C68.0126419,30.3352547,67.0260925,31.3218002,67.0260925,32.538765z"/><path d="M56.6769295,32.538765v1.859726c0,1.2169647,0.9865456,2.2035103,2.2035103,2.2035103h0.0000038 c1.2169647,0,2.2035103-0.9865456,2.2035103-2.2035103v-1.859726c0-1.2169647-0.9865456-2.2035103-2.2035103-2.2035103 h-0.0000038C57.663475,30.3352547,56.6769295,31.3218002,56.6769295,32.538765z"/><path d="M63.896328,40.583683c-0.5298653,0-0.9597549-0.4298935-0.9597549-0.9597588v-3.5378494 c0-0.5298653,0.4298897-0.9597549,0.9597549-0.9597549s0.9597588,0.4298897,0.9597588,0.9597549v3.5378494 C64.8560867,40.1537895,64.4261932,40.583683,63.896328,40.583683z"/><path d="M80.116127,19.815485v9.0051823h-0.2416916v3.4449768c0,0.8823586-0.7132645,1.5954819-1.5956268,1.5954819 s-1.5956268-0.7131233-1.5956268-1.5954819v-3.4932995c-2.6228943-0.3626099-4.653801-2.6109352-4.653801-5.3426437 V19.815485H80.116127z"/><path d="M80.116127,15.7541103v8.5579529H57.9717903c-4.4965057,0-8.146946-3.6383419-8.146946-8.1348476v-1.1967211 c0-2.320775,1.8857155-4.206418,4.2064171-4.206418h21.1046867 C77.8798294,10.7740765,80.116127,13.0102301,80.116127,15.7541103z"/><path d="M80.1112747,22.5019035v1.8080025h-22.134613c-4.5040245,0-8.1515388-3.6368618-8.1515388-8.1306171v-1.2017841 c0-1.2750092,0.5748367-2.4245529,1.4737015-3.1874914c-0.1566544,0.4285107-0.2403412,0.8988018-0.2403412,1.3794899 v1.2018471c0,4.4937563,3.6472549,8.1305532,8.1515388,8.1305532H80.1112747z"/><g opacity=".3"><path fill="#fff" d="M68.1959381,15.7343636h-7.8645554c-0.7667046,0-1.388092-0.6213875-1.388092-1.3880911 s0.6213875-1.3880911,1.388092-1.3880911h7.8645554c0.7667007,0,1.3880844,0.6213875,1.3880844,1.3880911 S68.9626389,15.7343636,68.1959381,15.7343636z"/><path fill="#fff" d="M55.6324768,15.7343636h-1.1234894c-0.7667046,0-1.388092-0.6213875-1.388092-1.3880911 s0.6213875-1.3880911,1.388092-1.3880911h1.1234894c0.7667007,0,1.3880882,0.6213875,1.3880882,1.3880911 S56.3991776,15.7343636,55.6324768,15.7343636z"/></g><g opacity=".3"><path fill="#fff" d="M68.3020172,27.1465397h-5.2554779c-0.512352,0-0.9275932-0.4152412-0.9275932-0.9275894 s0.4152412-0.9275913,0.9275932-0.9275913h5.2554779c0.5123444,0,0.9275894,0.4152431,0.9275894,0.9275913 S68.8143616,27.1465397,68.3020172,27.1465397z"/><path fill="#fff" d="M59.906498,27.1465397h-0.7507668c-0.5123482,0-0.9275932-0.4152412-0.9275932-0.9275894 s0.4152451-0.9275913,0.9275932-0.9275913h0.7507668c0.5123482,0,0.9275894,0.4152431,0.9275894,0.9275913 S60.4188461,27.1465397,59.906498,27.1465397z"/></g><path d="M61.2032623,45.2412453c-0.376152-0.3736534-0.3786507-0.980999-0.0049973-1.3571548 c0.3730316-0.3767776,0.9816246-0.3780289,1.3571548-0.0049973 c0.7158623,0.7106552,1.8678207,0.7023163,2.5737228-0.0087471c0.373024-0.3761559,0.9816208-0.3780289,1.3571548-0.0050011 c0.376152,0.3736572,0.3786469,0.9810028,0.0049973,1.3571548 C65.0392685,46.684864,62.6729164,46.7004852,61.2032623,45.2412453z"/><path fill="#1273ff" d="M86.9607697,66.925499v13.3288193c0,3.0200882-2.4568787,5.4770432-5.4770432,5.4770432H66.601265 v-7.3731308h11.6193848V66.925499c0-2.4057999,1.9579391-4.3637352,4.3637314-4.3637352 C85.0028305,62.5617638,86.9607697,64.5196991,86.9607697,66.925499z"/><path fill="#ffc27c" d="M66.8990402,83.9806519c-0.0355072,1.6496124-1.4015656,2.9580917-3.0511742,2.9225845 l-6.3959999-0.1327133c-0.6078529-0.0130844-1.081234-0.5188141-1.0681458-1.1267395 c0.0128403-0.5965805,0.5073013-1.0702057,1.1151543-1.0571213l-1.1256981-0.024231 c-0.6078529-0.0130844-1.081234-0.5188141-1.0679054-1.1380005 c0.0128441-0.5965881,0.5073051-1.0702133,1.1151581-1.0571289L55.59869,82.349617 c-0.6079216-0.0130844-1.0925713-0.5190582-1.0792427-1.1381836 c0.0128441-0.5966492,0.5188179-1.0812988,1.1267395-1.0682144l1.4859276,0.0319901 c-0.596653-0.0128479-1.0812988-0.5188141-1.0686989-1.1041336c0.0130844-0.6079254,0.4962769-1.0817871,1.0819054-1.080452 l5.5815849,0.115181L61.7309532,77.28479c-0.3318787-0.2774963-0.503479-0.6753387-0.4949989-1.0693054 c0.0062981-0.2926941,0.1138725-0.5832062,0.3106232-0.8267746 c0.4741058-0.5753784,1.3205643-0.6585541,1.8960114-0.1843719l2.4619141,2.0253906 c0.7072144,0.5818176,1.1085205,1.4558563,1.0888138,2.3714371L66.8990402,83.9806519z"/><path fill="#efa765" d="M66.9436951,79.015213c0.0366516,0.1954803,0.050209,0.3849258,0.0489502,0.5831451 l-0.0930176,4.3794479c-0.0389633,1.6521378-1.4047318,2.9640732-3.0569267,2.9252014l-6.3899155-0.1371078 c-0.6061859-0.0064621-1.0839577-0.5134735-1.070034-1.1239548 c0.0153351-0.3743744,0.2198029-0.7126465,0.5153389-0.8974762 c0.1552353,0.0957031,0.3414116,0.1434937,0.5323906,0.1489182l6.3972015,0.1327362 c1.6522293,0.0389099,3.0179672-1.2730713,3.0496445-2.9208298L66.9436951,79.015213z"/><g><path fill="#d3e6ed" d="M57.4024849,90.9156494H9.2992954c-0.9267311,0-1.6990805-0.6995926-1.8082118-1.6172333 l-0.3997054-3.6250687h49.7295189L57.4024849,90.9156494z"/><path fill="#c0d7dd" d="M72.3156509,85.6733475v2.5166779c0,1.5053177-1.2203064,2.7256241-2.7256241,2.7256241h-15.939827 c-1.3890152,0-2.5558472-1.0445404-2.7090073-2.425087l-0.3125496-2.817215H72.3156509z"/><path fill="#fff" d="M47.1987877,54.8252792l3.4392548,30.8524323H7.1077914L3.7046595,55.149334 c-0.0965934-0.8665085,0.5816188-1.6245232,1.4534926-1.6245232h40.5871391 C46.4903069,53.5248108,47.1162491,54.0848503,47.1987877,54.8252792z"/><path fill="#e5f5f9" d="M50.6412048,85.6733475H7.1039367L3.7057765,55.1462402 c-0.0998154-0.8630714,0.5815914-1.6170082,1.4537561-1.6170082h40.5845032 c0.7448425,0,1.3721275,0.5540848,1.4537544,1.2991524L50.6412048,85.6733475z"/><path fill="#d3e6ed" d="M50.6379623,85.6733475H47.589386c-1.3886299,0-2.5552673-1.0439835-2.7088928-2.4240875 l-3.1283226-28.1030197c-0.0998154-0.8630714,0.5815926-1.6170082,1.4537544-1.6170082h2.5348701 c0.7448463,0,1.371685,0.5540848,1.4537544,1.2991524L50.6379623,85.6733475z"/></g><g><path fill="#4fe88d" d="M89.110054,78.191452h32.8597946c1.8549118,0,3.3586121-1.5037003,3.3586121-3.3586121v-6.0069656 c0-1.8549118-1.5037003-3.3586121-3.3586121-3.3586121H89.110054c-0.3315887,0-0.6003876,0.2687988-0.6003876,0.6003876 v2.2466888c0,0.3315887,0.2687988,0.6003952,0.6003876,0.6003952h31.8597946 c0.4635849,0,0.8393936,0.3758087,0.8393936,0.8393936v4.1504593c0,0.4635849-0.3758087,0.8393936-0.8393936,0.8393936 H89.110054c-0.3315887,0-0.6003876,0.2688065-0.6003876,0.6003952v2.2466888 C88.5096664,77.9226532,88.7784653,78.191452,89.110054,78.191452z"/><path fill="#fff" d="M121.8063812,69.802742v4.0497894c0,0.493866-0.3949966,0.8888626-0.8888626,0.8888626h-30.075798 c-0.464447,0-0.8396683-0.3752213-0.8396683-0.8394241v-4.1387787c0-0.4740906,0.3752213-0.8493118,0.8396683-0.8493118 h30.075798C121.4113846,68.9138794,121.8063812,69.308876,121.8063812,69.802742z"/><path fill="#e5f5f9" d="M121.8063812,73.5166168v0.3359146c0,0.493866-0.3949966,0.8888626-0.8888626,0.8888626h-30.075798 c-0.464447,0-0.8396683-0.3752213-0.8396683-0.8394241v-4.1387787c0-0.4740906,0.3752213-0.8493118,0.8396683-0.8493118 h0.3752213c0,2.5236435,2.0309219,4.6027374,4.5928497,4.6027374H121.8063812z"/><path fill="#d3e6ed" d="M90.0028229,71.2214279v1.2164459h15.8153229c0.3359146,0,0.608223-0.2723083,0.608223-0.608223l0,0 c0-0.3359146-0.2723083-0.608223-0.608223-0.608223H90.0028229z"/></g><g><path fill="#b09ffb" d="M127.2081451,90.9156494H94.3483505c-1.8549118,0-3.3586121-1.5037003-3.3586121-3.3586121v-6.0069656 c0-1.8549118,1.5037003-3.3586197,3.3586121-3.3586197h32.8597946c0.3315887,0,0.6003876,0.2688065,0.6003876,0.6003952 v2.2466888c0,0.3315887-0.2687988,0.6003876-0.6003876,0.6003876H95.3483505 c-0.4635849,0-0.8393936,0.3758163-0.8393936,0.8394012v4.1504593c0,0.4635849,0.3758087,0.8393936,0.8393936,0.8393936 h31.8597946c0.3315887,0,0.6003876,0.2688065,0.6003876,0.6003876v2.2466965 C127.8085327,90.646843,127.5397339,90.9156494,127.2081451,90.9156494z"/><path fill="#9d92ef" d="M127.8110886,88.8194809v1.5c0,0.3300781-0.2695313,0.6000977-0.5996094,0.6000977H94.3511276 c-1.8598633,0-3.3598633-1.5100098-3.3598633-3.3598633v-6.0102539c0-1.4697266,0.9501953-2.7197266,2.2700195-3.1799316 c-0.1201172,0.3400879-0.1796875,0.7102051-0.1796875,1.0900879v6c0,1.8598633,1.5097656,3.3598633,3.3598633,3.3598633 H127.8110886z"/><path fill="#fff" d="M94.5118179,82.5269318v4.0497971c0,0.493866,0.3949966,0.8888626,0.8888626,0.8888626h30.075798 c0.4644394,0,0.8396606-0.3752289,0.8396606-0.8394318v-4.1387711c0-0.4740906-0.3752213-0.8493118-0.8396606-0.8493118 h-30.075798C94.9068146,81.6380768,94.5118179,82.0330734,94.5118179,82.5269318z"/><path fill="#e5f5f9" d="M94.5118179,86.2408142v0.3359146c0,0.493866,0.3949966,0.8888626,0.8888626,0.8888626h30.075798 c0.4644394,0,0.8396606-0.3752289,0.8396606-0.8394318v-4.1387711c0-0.4740906-0.3752213-0.8493118-0.8396606-0.8493118 h-0.3752289c0,2.5236435-2.0309143,4.6027374-4.5928497,4.6027374H94.5118179z"/><path fill="#d3e6ed" d="M126.3153763,83.9456177v1.2164536h-15.8153229c-0.3359146,0-0.6082306-0.272316-0.6082306-0.608223l0,0 c0-0.3359146,0.272316-0.6082306,0.6082306-0.6082306H126.3153763z"/></g><g><path fill="#c0d7dd" d="M31.871933,71.1536713v0.0099411c0,1.2923431-1.0476532,2.3399963-2.3400002,2.3399963h-7.0299606 c-1.292347,0-2.3400002-1.0476532-2.3400002-2.3399963v-0.0099411c0-1.2923508,1.0476532-2.340004,2.3400002-2.340004h7.0299606 C30.8242798,68.8136673,31.871933,69.8613205,31.871933,71.1536713z"/></g><g><path fill="#b6cdd3" d="M31.761282,71.8695297c-0.2998047,0.9499512-1.1899414,1.630127-2.2299805,1.630127h-7.0297852 c-1.2900391,0-2.340332-1.0400391-2.340332-2.3400879V71.149559c0-1.0400391,0.6899414-1.9299316,1.6401367-2.2299805 c-0.0698242,0.2199707-0.1098633,0.4599609-0.1098633,0.7099609v0.0100098c0,1.2900391,1.0498047,2.3400879,2.3398438,2.3400879 h7.0297852C31.301321,71.9796371,31.5415554,71.9395981,31.761282,71.8695297z"/></g><g opacity=".7"><path fill="#fff" d="M18.9097195,58.2315903h-1.1123047c-0.5527344,0-1-0.4472656-1-1s0.4472656-1,1-1h1.1123047 c0.5527344,0,1,0.4472656,1,1S19.4624538,58.2315903,18.9097195,58.2315903z"/><path fill="#fff" d="M14.7593279,58.2315903h-6c-0.5527344,0-0.9999995-0.4472656-0.9999995-1s0.4472651-1,0.9999995-1h6 c0.5527344,0,1,0.4472656,1,1S15.3120623,58.2315903,14.7593279,58.2315903z"/></g><g opacity=".5"><path fill="#fff" d="M69.6027985,88.7315903h-6c-0.5527344,0-1-0.4472656-1-1s0.4472656-1,1-1h6c0.5527344,0,1,0.4472656,1,1 S70.1555328,88.7315903,69.6027985,88.7315903z"/></g><g><path fill="#fff" d="M106.0471344,68.0826874h-0.9698486c-0.4819412,0-0.8719254-0.3899841-0.8719254-0.871933 c0-0.4819412,0.3899841-0.8719254,0.8719254-0.8719254h0.9698486c0.4819412,0,0.8719254,0.3899841,0.8719254,0.8719254 C106.9190598,67.6927032,106.5290756,68.0826874,106.0471344,68.0826874z" opacity=".5"/><path fill="#fff" d="M102.4283066,68.0826874H92.1967468c-0.4819412,0-0.8719254-0.3899841-0.8719254-0.871933 c0-0.4819412,0.3899841-0.8719254,0.8719254-0.8719254h10.2315598c0.4819412,0,0.8719254,0.3899841,0.8719254,0.8719254 C103.3002319,67.6927032,102.9102478,68.0826874,102.4283066,68.0826874z" opacity=".5"/></g><g opacity=".3"><path fill="#fff" d="M122.1991348,80.6243515h-10.2315521c-0.4819412,0-0.8719254-0.3899841-0.8719254-0.8719254 s0.3899841-0.8719254,0.8719254-0.8719254h10.2315521c0.4819489,0,0.8719254,0.3899841,0.8719254,0.8719254 S122.6810837,80.6243515,122.1991348,80.6243515z" opacity=".5"/></g></g></g></svg>